<mxfile host="app.diagrams.net" modified="2024-05-28T12:05:45.163Z" agent="Mozilla/5.0 (Windows NT 10.0; Win64; x64) AppleWebKit/537.36 (KHTML, like Gecko) Chrome/121.0.0.0 Safari/537.36" etag="zGvmmWy27mYmPe7Eh6v-" version="24.4.9" type="device">
  <diagram name="Página-1" id="JdlYkkA7mGXcte8pQ7xP">
    <mxGraphModel dx="1434" dy="782" grid="1" gridSize="10" guides="1" tooltips="1" connect="1" arrows="1" fold="1" page="1" pageScale="1" pageWidth="827" pageHeight="1169" math="0" shadow="0">
      <root>
        <mxCell id="0" />
        <mxCell id="1" parent="0" />
        <mxCell id="8OQxIH6SHYgHdTAtB-A_-8" value="" style="swimlane;startSize=440;fillColor=#30B27F;strokeColor=#23445d;labelBackgroundColor=#FFFFFF;" vertex="1" parent="1">
          <mxGeometry x="80" y="60" width="396" height="536" as="geometry">
            <mxRectangle x="50" y="70" width="50" height="40" as="alternateBounds" />
          </mxGeometry>
        </mxCell>
        <mxCell id="8OQxIH6SHYgHdTAtB-A_-9" value="" style="verticalLabelPosition=bottom;verticalAlign=top;html=1;shape=mxgraph.basic.patternFillRect;fillStyle=auto;step=5;fillStrokeWidth=0.2;fillStrokeColor=#dddddd;fillColor=#99E89D;strokeColor=#36393d;fontColor=#76DB9B;" vertex="1" parent="8OQxIH6SHYgHdTAtB-A_-8">
          <mxGeometry x="90" y="300" width="180" height="50" as="geometry" />
        </mxCell>
        <mxCell id="8OQxIH6SHYgHdTAtB-A_-14" value="LOGAR" style="text;html=1;align=center;verticalAlign=middle;whiteSpace=wrap;rounded=0;fontStyle=1" vertex="1" parent="8OQxIH6SHYgHdTAtB-A_-8">
          <mxGeometry x="140" y="310" width="60" height="30" as="geometry" />
        </mxCell>
        <mxCell id="8OQxIH6SHYgHdTAtB-A_-20" value="BEM -VINDO A LUPA" style="text;html=1;fontSize=24;fontStyle=7;verticalAlign=middle;align=center;fontColor=#30B27F;" vertex="1" parent="8OQxIH6SHYgHdTAtB-A_-8">
          <mxGeometry x="140" y="130" width="100" height="40" as="geometry" />
        </mxCell>
        <mxCell id="8OQxIH6SHYgHdTAtB-A_-22" value="&lt;h1 style=&quot;margin-top: 0px;&quot;&gt;&lt;br&gt;&lt;/h1&gt;&lt;p&gt;&lt;span style=&quot;&quot;&gt;LUPA FINANCE: SUA VISÃO FINANCEIRA, AMPLIADA&lt;/span&gt;.&lt;/p&gt;" style="text;html=1;whiteSpace=wrap;overflow=hidden;rounded=0;labelBackgroundColor=none;fontColor=#333333;fontFamily=Georgia;fontStyle=1" vertex="1" parent="8OQxIH6SHYgHdTAtB-A_-8">
          <mxGeometry x="90" y="160" width="250" height="150" as="geometry" />
        </mxCell>
        <mxCell id="8OQxIH6SHYgHdTAtB-A_-16" value="" style="verticalLabelPosition=bottom;verticalAlign=top;html=1;shape=mxgraph.basic.patternFillRect;fillStyle=solid;step=5;fillStrokeWidth=0.2;fillStrokeColor=#dddddd;fillColor=#99E89D;strokeColor=#36393d;" vertex="1" parent="8OQxIH6SHYgHdTAtB-A_-8">
          <mxGeometry x="90" y="370" width="180" height="50" as="geometry" />
        </mxCell>
        <mxCell id="8OQxIH6SHYgHdTAtB-A_-25" value="CASDASTRAR" style="text;html=1;align=center;verticalAlign=middle;whiteSpace=wrap;rounded=0;fontStyle=1" vertex="1" parent="8OQxIH6SHYgHdTAtB-A_-8">
          <mxGeometry x="140" y="380" width="60" height="30" as="geometry" />
        </mxCell>
        <mxCell id="8OQxIH6SHYgHdTAtB-A_-28" value="" style="shape=image;imageAspect=0;aspect=fixed;verticalLabelPosition=bottom;verticalAlign=top;image=data:image/png,iVBORw0KGgoAAAANSUhEUgAAAQAAAAEACAYAAABccqhmAAAACXBIWXMAAAdhAAAHYQGVw7i2AAAAGXRFWHRTb2Z0d2FyZQB3d3cuaW5rc2NhcGUub3Jnm+48GgAAIABJREFUeJztnXd4HNXZt+/ZIq26LNlWce/d2Bg3sMGUEGoILUAoCQm8EAghCS2EFCCQRk15kzdACARCIAFswEBowVQXbOMqd9mWkSxZsqwubdHO98ex/bloZ2bLbNE+93Xt5cs7M+c8O5r5zZlzngJCb+JbwBYgCOhJ/OkCPgKm2XMaBCH9+DGJv7HD/fgQERCEqCkBvCT+ho7k85EN50OwiCPRBggxYQqQkWgjImQmoCXaiHRFBKB3kJloA6LAjVyHCUNOvCCkMSIAgpDGuBJtgGA/x19yAvl9823vZ6/Xid7D97s/30L1ik229y+EjwhAGnDqt05l8KQhtvdT0ZxBsIfvl/15gQhAkiKvAIKQxogACEIaIwIgCGmMCIAgpDEiAIKQxogACEIaIwIgCGmMCIAgpDEiAIKQxogACEIaIwIgCGmMCIAgpDEiAIKQxogACEIaIwIgCGmMCIAgpDEiAIKQxogACEIaIwIgCGmMCIAgpDEiAIKQxogACEIaIwIgCGmMCIAgpDEiAIKQxogACEIaIwIgCGmMCIAgpDFSHFRIVcYAJwMFiTbEgCDwBfAG0JxgW3pEBEBIRe4C7iZ1rt9q4BLgk0QbciTyCiCkGucC95E6Nz/AAOBfQGGiDTkSEQAh1bgh0QZESDlwfqKNOBIRACHVKE+0AVEwINEGHIkIgJBqaIk2IAqS7n5LOoMEQYgfIgCCkMak0kyqIBhyTr9ynpo03fZ+OoNddOhdR32vA2M/+MD2/mOJCIDQa8hwOOjjzrC9n8xgNxl691HfB3Xd9r5jTToJwETgAeBYwJ1gW8zYilrrfjXRhgi9m3QRgKnAYiAz0YZYZDrwCnA98JcE2yL0YtJlEvCPpM7NfygPkty+7kKKkw4C4ARmJdqICMkFpiTaCKH3kg4CkEFq/86sRBsg9F5S+cYQBCFKRAAEIY1Jl1WAkMw7roSZk4vt78jvheDRa8c1DV6eeWu3/f0LQg+kvQCccUI5d3xrvP0ddTRBwHvU10vWN4sACAlDXgEEIY0RARCENEYEQBDSGBEAQUhjRAAEIY0RARCENEYEQBDSGBEAQUhjRAAEIY051BNwCPAlIA5+sRETBGpQtdb2JdgWQUh5DgjAd4CHAU8CbQmHOuBy4L1EGyIIqYwDmIPKmJMqNz9ACfDC/n8FQYgQB+rpn4pzAcXApYk2QhBSGQepXWttYKINEIRUxkFq11pLZdsFIeGk4tBfEIQYIQIgCGmMYUagkTNO4ManF9huxB6/TpWv523/OnE4/o42220QhHTEUACcbjfZBX1sNyLLr5MZQgDQ5DXfAoYK6clNpRVeIZ7IK0Dv4DNCeEb2H9qffkP6x9kcIVUQAegdtKL8OQKHfun2ZPCNh69Gc8goSuiZtM8K3It4AdgO3NZ3UN+5I2eMKjn7++dQOqI00XYJSYwIQO9iGXDxr5b+5hHg+4k2Rkh+5BVAENIYEQBBSGNEAAQhjREBEIQ0RgRAENIYEQBBSGNEAAQhjREBEIQ0RgSgFxLwBuTvKlhCLpTegwbcBNR+Z9h13/vRzDtYtmBpom0SkhxxBe493AP89MB/9u5q4PEbHsPb4WXu109MoFnxwxcMsq2jjd3eLup8XdR0ddIZ7D5snwyHg37uTEoyPZRkeBjgyaLInZEgixOPCEDvoBy4s6cNL977b2ZfdDyujN7/p15YX8PC+pqwjxvoyWJSXiHH5BUwLb8P84r6p40o9P6rIj2YTIi/ZUdLB3u276F8TConfz5IfyAv1o1+0dXJF12dvFm/GwCnpnFcfh++3LeUM/uVMaOgKNZdJg0iAL0Dw8dVwOePlx12kAFcCFwBnE4crtluXWdpcyNLmxu5d1sFY3Py+OaAYVxRPoSyzN6VXUkmAYVkpR9qTmMn8BxwFgl6YG1sb+VHm9cw9IOFXPD5p6xoaUqEGbYgIwAh2SgCvgf8EBuG+9EQ0HVe2VPNK3uqmVFYyJ0jRnB8H/tzZtqJjACEZMEN3AFUAj8nyW7+I1nW1MT5K1Zw5erVVHV2JtqciBEBEJKBOcBK4NdAQYJtCYu36+uZu3gxD1RW4tP1RJsTNvIKICQD7xNFmTdnRhY5ZaPJKR9LTskoMgtLySwsIyOvLw63B4c7E4Bubzvd3nYCXe0EOlvorK+ko24b7XVb6ajdiq+1IaL+u4JBHqys5NW6ukh/QsIQARCSgbBv/pyyMRSNnUuf0ceTN/gYNIfT9BhnZg7OzBwy8tX/84ccc9j2zoad7Nv4EU3rP6KpaiXBYHirJ5vb28PaPxkQARBShoz8/vQ/9hz6Tzmb7JIRMW8/q+8QsuYMoXzOFdDWTsuSd6la/QJNDRUx7ytZEAEQkp7skhEMmPsN+k85E83pjk+nuTkUnHoes6acR/vWNWxf/09qKt8hGAyYH5tCiAAISYunTzlDz7iZvpNOT0iJOF2Dtr7gcU/m2JLJjJl2PeuXPkLtjkVxt8UuRACEpMPhzmTwKddRPudyHK7MRJtDVwHoLsjRhjDz9EdpqFnGusUP0bx3U6JNixpZBhRsRQ/q1K2ttLx/3uDJTL3pBQbO+1ZS3PwH8OZAW4kaFfQtn8FJF/yTccfdaGny8RCSrkabCIBgKx/++lkq3//cfEfNweDTrmfydU+R1W+o7XZFgi8L2vbXWdU0B6OPvZYTznmCrFzL5deuB4baY11kiAAItvHZY6+x6pm3TfdzZuYw7oqHGXzq9WiOGF2Suo6/rZGOum20VVcc/Hib69C7I5/I82VDWz8OPsuLS6cy78IXKB1sKedCKfAmyt05KZA5AMEWKt//nE8f/bfpfp6igYy/6ndRL+u1126macsS2mo20F6zic6GnehHJAM5iKaRkdeXnNLR5A4YR97gyRSOmHnQYcgMby44fZDVrP6fkVnAjC8/yqoP76Fq0ytmh48F/okKbgphYPwQARBiTvOuPbz9o7+AiWtsVt/BTLzmcTILSiLqp712M7XLXqaxYhHe5lrrB+o6vpZ6fC317Nv8CaAmHgtHzqL/lLMonnCK6XJjZxG4/ODuUP/XNAdTT7obd0Yu29b+w8yC04FfAD+2brQ9iAAIMaXbF+D1m3+Pt8XYKy6r7xAmXfs4Gfn9w+tA19lb8T5ffPgUrVVrorD0cIJ+L40bPqBxwwe4c4sonX4BA+ZciSu759AEHWjtB4VfgOPgc1xj4uzbcGXksWnF/5l1eQfwFvBBrH5DJLiArlAb3b0s+YFgP8v+bwH1G3Ya7pNZWMaka58gI79fWG03bVvGjv/8jrYv1kdjoin+tkZ2vf8Euxc/z4C532DA3CtxuI++F3SHmhTMr0Upwn7GTrseb+dedlQYvgI5gL8CxwAJ8yF2AJ+E2jhy5pw4miKkOg2bdrH88YWG+zgzshl/1e/CuvkDXW1snf8L1v31Ottv/iP73fnO/7LykQtp2tZzhmW/R80JHMnk439EvwEzzboYgYqATBgO4CFg45EbyseM57Rrb46/RUJKEuwO8taPHyMYMJjX0hyMvuR+cspGW263uXI5Kx+5gNplL5nOKdhF175q1v31eipf+22PKwjtxRA84mVacziZftoD5BYONWv+BmBujEwNGwfQAcwC/gTs6lM+iHlX38Dtr3yE25OVKLuEFGPJi4vZU7HDcJ+BJ11N8fiTLbdZu+wl1j15Pb6WPVFaFwN0nZpPn2Pt49ccFTasa9BRePQh7sx8Zp7+KE6X4av0gYdwQpyEDuhWM3CjruvffWx3dzARhgipi9/r55UHFxjuk91/OINP/R9rDeo6lQt/S82n/wzbFofLxeBJUxk0YQplo8eRV9yPvOJ+oGn4OjvYV/MFTburqVr3OdtXr6CjMbwcAC07V7H6T1cy6drH8RQNPPi9Nxc8zWpl4FByC4cyfsZNrP30AaNmp6MSn74YljExQFYBhKj571/fo7G6MeR2zeli9CX3W3Pt1XW2vfordi/5l+X+HS4Xk049i5kXfJ3xJ32JrHxrSYX0YJDVK5fzycL5bJn/DJ311pYSvU27WfvYNUoEigepLzXoKIL8HnKCDJtwGTWV77G3dqVRs/cBC4C4hhuKJ6AQFQFfgHceN/b2G3DC5eSWj7PU3vY3HrZ887syMjnl2zfxq2XbuOFvLzPt3Iss3/wAmsPBlONm8NW7fsklH1Zy0sN/J3/oSEvHeptrWfv4tYe9DvizobuHBO0HfAQcDkPfgjHAVZaNjxEiAEJULHl5Cc11zSG3u7LyGXjStyy1Vbd8PtUfP2Np34mnnMG9H1dwyS8eobB0gKVjQlHu1ujvcTPi3Mu44D9rmfXTR3Bl5Zge522uZcOzPyQY8B78rjOE/uQUDGbo+IvNmoz7rLsIgBAxuq7z7mPGT/+B874d0pnmUFqr1rB1wS9N93N7srjqoce46dmFFA8cYtlWIzRgaIZGpkPD4XQx/qrvcv4bq+h3zAzTY1ur1rDtELu9OaCHCBAcPfUaXG5DYZkMnBCO7dEiAiBEzPaV26neWB1ye0Z+P8qPv9S0naDfy+YXf4bebZyDr0/ZQG6bv4gTLrM2oggHpwbDD5miyBs4lLOe+y+jLjAfldeteIW9FYvUfzTo6sEvACAzq4gRk64wa+47VuyNFSIAQsQsfXmx4fbSGRdZmvjb+fYf6azfYbhP8cAh3Dr/fYYcMy0cE8Mi3wFFhzy9nRmZzP31E4y/6kbTY7ctuI9Ah6oY5DN4yA+beCkOp2Elt4uAvpYMjgEiAEJEBANBli9cHnK75nRROv1803Y663dQ8+lzhvvk9yvhhy++S9/Bw8K2M1wGHXlvahqzfvIIo79mPOrwtTZQ9d5fAAhkHu0YdIBMTx/Kh3/JqKlM4Byr9kaLCIAQEZuWbKKlviXk9uIJp1gK9Nnx1h9Ch+2iZvqv/+uLcbn5ATwOjT5H3ryaxvH3/JHSGcYx/7uXvkjXPvVKZDgKGP81MzPONTU0RogACBFRscjYJ7//lLNM22ir2cjeiv8a7nPe7fcw4rjZYdkWLWWuo53yHC438x59lkyDUuF6t59d+0cBPgMn2qKSY8gtMJzAPB2ISyTeAQHIAx7VNG3rXbNH8++7b8Xb3haP/oUUpeLD0ALgcHsoHDnLtI3di5839O8fPm0mp133g4jsi4ZcJ2Q6jhaB7H5lzLzrQcNj61f/B397E4FMDJ17S4fMMzQBsO4zHQUOIAv4FLUGObxhZyXvPvYov/3KXAI+r/HRQlrS1tjGrvW7Qm4vHDmrx/DZQwl0tlC/+j8ht2uaxsV3P4zDGVbSzZigAX1CdDvyq1fQb/L0kMcGAz7qVixAd0C3gd9P6RDTFGJxCcV1AD8AJh654YsNa3nv8d/FwwYhxdi5Zge6wZO7aKx5cNve9f8l6A+ZioLJp5/L8Gmm4bS2URhKdzSN42693/DYPStfA9RkYCiKSqaQkWnoH2HfcschOICQUrR5yUfxsEFIMarWVRluzxs8ybSNxg2LDLcnOhQ912B2rGz2yRSPnxJye0fdNjobqggYjAA0h5PCfhOMTIibAIQcq/m7UrfuuWAfu9aFHv47XJlk9xtueHww4KNpa88JNgBKho9m1GxLWXZtw6lBVg/zAAcYc8k1hsfv2/QRQZMqZgV9DeMj+gKDjFuIHlkFEMKmdlvoqLmcslFoTuMg0/bdm+j2hX64TD3rfLQElAI7Eo8W+jVn6JfPN0xh3rJjVUhfgAMU9h1rZsJ4sx2iRQRACJum2n0ht2WXmEfTtVVvMNw+8dQzw7bJDjIMRgCe4v4UTzw25Pa26gq6TQQgv2iUmQnlZjtEiwiAEBZ+r5+2xtBLxFZSfLfvDl1Tz+F0MmRy6BsrnjhNBiH9p4SepOxqqsHvbTU83pNjmhfRcsmhSBEBEMKiqbbJcAUgI8882ae3uYesGfspGTGGjKzsiGyLNU6McxAWj58aeqOu42upM/QFcLlzcLkNf2uZoQExQARACAujpz9gKduvrzl0jr/iQbEJ8Y0FukmavtzywYbbfS0N6CajiMxsw7ifyCqmhIEIgBAWwW7jalbOTPNEGv720OnDCvrb/tCzTMAkCXFWP+MRur9jn6kAuFyGiXdtT9knAiCERXcg+pyxRsE/GUmUiTpgkobcmWES6qyDZnq6EpPq/AAiAEJYBG1OGq0n+IY4lC6Tn2o0F3IAg5VEK9h+MkQAhLAwX5+3cFMYFN7sag0dYhxPdKDT5Kf424xtdZgUGIWE1To5iAiAEBY5fYzf8f0doROEHiAjL/TEV/OeMKr82ogvqNNtcnO214VOhwbgybYwIeptMuzCtIEoEQEQwiK3KETCu/34W80LbWTkFYfctqdyS9g22UGT8VwnAK1VlYbbPZ7QvxNA14N4O/ca7VJjbkV0iAAIYZFblGv4GnBk2aye8BSFdnHf+8VO2sKs1mMHzRamOhrWrgi5TXO6ycoyXsXzdjYaTogCu82tiA4RACEsXG4XWfmhZ+q9TeZD+NwBxkVCtiz9OGy7YkkAaLZQn6dueWg7c8pG4daN5wC62kM7RO1HBEBIPspGhXZRb6s5qtD0UZgJwJq3jUuM202DX8dsANC4YTVtNaHDonMHjMdlkk+nqcH0XBlPMsQAEQAhbMrHhBaAzvpKw0QfoAqFGk0Ern7r1YSFoutAnd88ErHydePyZYXDppsLQL1hXsUgsNbUkCgRARDCZsCY0KW49GCQ9t2bjRvQHBSNDR3v397UyLIFz0dqXlTsDUCXydpct8/L5hefCrldc7roN+R4076aGiqMNm8BjKOJYoAIgBA2gyYY56lorgxdL+AAReONc16+8+eHTd2OY00Q2OUzX5jf8tLTdO0NHc9QMGwaWXqeYRt+XyutjVuNdvnc1JAYIAIghM2wY4fj9oSubtO48QPTNvqMPp7MgtC+9Lu3bGDxv56OyL5IqfGD2f0f6Oxg1R+NcwKWHHc+GSYr+HVVHxMMGs40fmbcQmwQARDCxp3pZtSM0Ik/WqrW4m8zXN9GczgpnXGh4T4v3/9jWupNZ8pjQmsQqv3mT/+Vv7ubjj2hl+cz8vpSMvpUnMZlDqndaSqSxlVXY4QIgBAR4040yFalB2nc+KFpG6UzLzKMHmxrbOCfP74pEvPCohvY1qWbejHXLf+E9U/93nCfstmX4ukyXv4LBv3s2fWJ0S5VwDpja2KDCIAQERNPNs78W7vsJdM23Dl9GDDnSsN9Vr7+Mm//ybgYRzQEgU1dOl6Tm7+jfjfvf/9ydIN5CXduEeXHX0amydRdTeW7+H2GO71h3ELsEAEQImLguIEMHDcw5PbWXetoqzac5QZgwNwrceeGLrcFMP9Xd7Hy9ZfDttEMXYctXp1Wk7lGb/M+3rnmK3SY+P4PPuU6sgI5OEza21FhvIQIvGq2Q6wQARAiZtZFxktdu5eYXug4M3MY8ZU7DfcJdnfzxA2Xs3Kh+ajCKt06bPbpNJl4/HmbG3nrm2ewt2KV4X55gyZROvNiPCbBjM17N7O31nCCv5o4vf+DCIAQBTMvmInDGfoSql/1Bl37zONZ+k76En0nGZbMptvv57HrLuW1h+61FIdvhDeoU9FlfvO37NjK65ecRMO6lYb7OVyZjLroHtw+B25jHyi2rn7KzLynUNMScUEEQIiYwpJCJp06OeT2YMBH1bt/ttTWyK/ehafY2L9A13UWPnQvf7n2a7Q2hF6HN6IpAOu7oMPE13fLy3/n1Qtm0bTN3LV5+Lm3k91/ODmhs6UD6ulfvS10PUTUNOSTph3GEBEAISrOvMm4DPiez1+nvdY8xNeVXcj4q36Py2Mcbgzw+RvzuXveZD569nG6/Sbrbfvx6bDVq7PJq2O02rdv83reuvosPrrj2/hazXMblM2+lNIZF5LRAS6Tp/+GZb9H1w2V5w3AOMY4xogACFExYtoIxhw/JvQOepDtCx+0lPomu/8wxn79ATSHeUXgtsYGnr39O9w9bzIfPvMYXW09z6r7ddjlg9UdOnsNhvx7Vi1l0Q+uZMG5x1L98Tum/YMqgjr8nNvQdMgOnedUtf/FYup2mUY53mup4xgiAiBEzZnfNR4FNG1bSu2yFy21VThqNuOueAiHyyTh5n72bN/CP+64gTuOHcwTN1zBZwueZ19tNc3dsM2r83mHTk0P0X1Bv489q5ay8tG7mX/2FBZePIfKhc+jB63lPCwaeyJjL38IzeEkqxlDx5+Ar51VH95j1uR/gGWWOo8htqcdFno/E+ZNZOyccWz8OHTJr+1vPkrh6BPw9DGvdlU0bh7jv/kHNjzzA7q91rJidbW18tmC5/lsfxBRVr9S8oeMJKd0AO5c5Zcf9Pvp2ltP2+4qmrdtIhiw9vpwJH0nn86Yr92P5nTj8oHHMKsXrFvyIJ1thnkSdBLw9AcRACFGXHrvZdx7+t0EQ6QN7/a2s+XfP2Xit/9iWjwUoHDEDCb9zxNsfO52uvaGrkYcis76WjrrY5xfUHMw5LTvMOjka0DTQIeceuPMv7U7FrFz43yzlp8DFsfQUsvIK4AQEwaMHcDJ3zjFcJ/m7SuoXPhby23mlo9j6k3P03/q2dGaFzUZeX2Z8I3fM+iUa9XND+TuBZcv9DGtTdtZuegnZk23ALfFys5wMZTixupdvPW/1v9gkdLaDftCrHwG/QZnOAZ8sCI+wSb4O6GH6K+qOpOp4xjwyQufUPGhuVdetGRkhY4QPMDuJf8ip3QUpTMvttSmMzOH0V+7n6Jx89j+xsN4m2zPknU4mkb/qecw/OxbcWUXHPza04Khy6+vq4ml/7kJv8+4lBpwJ3FI/RUKDVgEnJQoA6LkIeBWk32ygI442GIXZ6ImiIz4CvBKHGyJCZrTxfgrH6XPmDlhHRcMeKn5+Fl2LXrS8txANBQMm8aws35I7sAJh33v6oT8utBD/4C/g8Vv3kBjrbH3IPA+cBqYZiCzDZkDEOKO3h2g4pkfMO7yBygaN8/ycQ5XJgPnfZvSWZewZ+Wr7F78Ap0NO2Nqm+Z0UTxuHgPmXkXe4KOdnNxeyNsT+ubvDnSy9K3vWbn564ErSODNDyIAQoLQu/1sfO52xl7+oGF6sJ5weXIpP/7rlM++jObtK2jc8AGNmz6is35HRLY4XJnkD5tK8bh59J18Bu6cwp779UJebeh6fwF/O4vfvNHKza8D3yAOef/NcAH2vmTbixXb/agTbp7pMTkxSS0JpOjfMBjwseHZWxhx7h2Uzrwo/AY0jYLhx1Ew/DiGnX0LXftqaKuuoKNuGx11W/G17CHQ1UZ3Vzvdvg5cnlwc7kwyCkrILCgjp3QkOeVjyRs4AYfbY9iVq2v/sD/Ezd/RWs3St35AS6NJPkTFfcCb4f5cO9CAXwN3JNqQCLkQsBIn+jkwxWZb7MAHlAPG6XWgDJVEImVHdKUzL2LEuXcY1g1MFBltkNsQetjfULOcz969FV+XiUOA4mngahJdFng/TmAF6l0kP8G2hMv7qBlUK2wEriL1RgE/w1poaBvgJnUnc2mrrqB522cUDD8OV1ZyXIoaysU3p7HnC0cPdrN19dOs+uDnBPyW5pnfBi4jjtF+ZjiBLuBfwHBgJMnvG9AG/AW4ButD353Ah8BUIHQmyuShBrU2/LswjlkENADHAuYRNUmIt7mWuuXzcWZkkTdo4sH19kTgCOrk7tHwhFjFa2ncytK3bmbXltfMAnwO8DFwHpCYggchOPIMO4CCnnZMEnTA0jjLgEwgOwa22IWP6KvC5qJGBMnEV1HCbcmu/CFTGH7ObUctwcUDd4dy8nH0EDwU8LezdfXTbFn1N4JBy67E7wDnE4dqv+GSakNiIbU5DXiJMF43C0fOZNhZt5BTNto+q/ajdUNuo3rnP5Jg0E/VplfZuPxPZhV9j2QhcDFqpJ10iAAI8WY66qbob/UAzeGgaNzJlM28mMKRM2P/ahCErFbI2nf0RF9XRz1VGxewfcO/6WqPKAnJDYC1rCgJQARASARDUQEws8M90FM8iNLjzqd4wslk9RsWlRFaULnzZjerp/8BugNd1FcvoWrTq9RWfWBWwtuMLmAmsCYqY21CBEBIFC5UCOwdRDjx7CkeRNHYEykYPp3cAePILCixdJwjAFnNkNmmRCAY9NPauJXGujXUVn1IQ81ygt1W3C8ssxE18jENDIg3IgBCojkVtTYeuuKoRdy5xeSWjyWzoISM/P5k5PU9GMCjBZUnn7PNi7+tka72erwde2lp3EpbU6VZma5Y8HeU958gCEeQC/wKNVzWU/CzFthlYb+kEwAZAQjJxEjgEeCcRBtikTqUs9ZfgeOB/2LsjdmOehU4kDqpD8o3ZRxwaErkFqACNW8Q1yShgpAMnIAKb+4m8U/3nj67gduBI2uA32Xh2DUoz9uFKJ8Ps/3XAz8FhkRyIgUhlRmHypOfLK8Gq4HvAKEihxwopx87+u5C5b8wrqMmCL2QQlQAzdtAgPje9HXA/wEzLNpaghoh2GVPPWriVBDSkhLgWuAZrE28hfsJoALkHgJORMXLhMtp2Pv6EgBuicCuo5BJQCHVGQ7MAcYCo/Z/RgI5JscFUU/3L1ATbutRQ/wlqEm4aPkFYJoRNEp+iJo0jRgRAKG3kocSgWzUbPsBmlEReXWoJ6ldlKGiUO0MygqiwovNyzALghA3NOBVwhjWZzgdenG2W3c7tXBfB9qBidEYGkucwECgb4za86GGaCZ1V9MWD8qv3my4a5V2YAdJGrmWQnwNeMFsp6JsN+dP7M8pI/swrCgbx/67saHdx0fbm3itop6KOksRxBUo/4Kws1/HSgDyUNl5rgH6xajNA+ioqin3YC07TjowEpVX7iuotOexpAu1Bv9TwLysr3AkLmAdYFAxFc6bVMatp44i2xnE7zuQtvJwdOC19fX8/uMq2nymAUlPAt8O19hYCEAp8C5gd+YGHXVR3m9zP8nOPNQNanferBZUEov/2txPb+Nc1PAfHoG6AAAM6ElEQVQ/JDeeNIrvzht18P+6ruPzdeHt6Owxu1BFXTvfXbCRDnMRuAL4RzjGRisAGvABMDfKdsLhfGBBHPtLJspQs9V9zHaMEU0oYU94+uoU4gXUK0CPnDmhjIcvmtrjNl3X6exow+89OhLxs10t3PzKJoLGZdZbgWmEMXKLNv/fmcT35gf4ZZz7SyZuJ343PygHnFTNGJ0IHMAZoTZmuZ389KzQA2VN08jOySMz++iMddMH5fPtGaaVlfNQAmSttjrRC8B5UR4fCeMAq/mhvoYKvIilU4YXlWA0EWnGE3G+rfaZgVr7jrUXXDPwFLGbWLaT8Ri8mp0/ZSB9ss3rJ3o82WRmHS0CV08vZ9pA0ze/qcCDpp3sJ1oBGBrl8ZFiJRXM9Sg1HEtsMx1noEY9S4BjYtiuGQ5gcBz7O8AgrNUbeB7l+BLrrMv5qDDaj0nuZK4Ak4w2njjK+vy4x5ON2324WDg0jXtOH0GfLFPXgu8CF1jpJ9obw1zO7MFsiJMLPBAHG6LywgoTJ5G5pUaLA3NnltNQczN2Mgb4ns19RIvhGH18WRgJtzXIys3D4Tj8Fu2b4+bnpw8/uGRowBNYeEDbVkmmaMQAZn3XkggdRUt1PR8/+Hw03Y8lPrnxrQaI2M4lpYO4oGRgRMe+sqea53ZXRdP99GgODoOkOd8hMFySzfOEd7tpmkZWbh7tLc2HfT9rcAGXH1vGMysMq4r3QXkIzsGgfoZtApBdnM+oMyL7e9VviLria7wch8LKD20nE/MKuKg0MgGo7GyLtkJ9vM53Y5z6iRTDQjXt3gAeV3iDOJfLjSc7h66Owx2Crp81kFU1razdbZhmcDrKX+T2UDskexWgSNkGvBeHfh6LQx+pwEuoqkR20o0a1iYzhnnDKxsiqwuS6fHgOmI+wOnQ+MWXR5JvPqq4FbVa1yO9VQBAxY+vtLH9fwK/sbH9VKIe+Dr2iYAXuBk18ZrMbDTa+N9NdRE2q5GVm3vUfEBpXgY/+9JwM2ceDYOkqylbTdYCu4BZqGWsETFstxtYhloKFP4/76CWwb5KbLPWdAJvAFtj2KZdrEa5UveYMeiV1dV858SR5HvCDxB0aA6ycvPoaGk+zGl4ztBCLj6mhH+tNhSXfigPwVM5ojBpbxYAAD/wYqKNSCPqgccTbUQC6URVre5xyL2vw8ej723iZ2dHFrzncrnJyMrG23l4zM9NJwxmze42Nu4xfMU4CZXA9OeHftmbXwEEIRE8a7Tx+eVVvBfxqwB4srJwuQ8fQbidGvefMZKcDNMJxp+glmwPIgIgCLHlJaA61EYd+Mkra6ltiTTiWrkLa9rht+6Agkx+dPJQs4MdwN84pAK4CIAgxBYvcLfRDk2dPm596XO6g4aBPSHRHA6yco92c/nS6GK+MsHU23AgamkQEAEQBDt4EpNJ4hVV+/jjosjTLbjdGWR6jvY7uuXEIYwoNk0RcR0ql6IIgCDYQBD4JiqQKSSPfbyNxZWRr5x6snNwuQ6fD8h0ObjvjJF4XIa3thu4EXr/KoAHuAQVPRgrP3ovaj36zRi115soBy5G5S2IFc3Aa6gsO6nEdlT68pAJO4O6zu3zVzP/ujn0zbUcwXsYWbl5tDY3wSGJRIYVZXHz3MH85v0dRodeCdzemwVgGKr80nib2n8FFW5s6P6ZRpyDytVfaEPb9wI/xv4Ar1jzb+DPqGpCPdLQ5uX2+at54orpOLTw8/M4HA5ycnJpbzs8k/l5E/qb5RTsB8zoza8AT2PfzQ/KweguG9tPJUpR5a/tuPlBjVR/TfyTz8SCHwKfG+2wuLKBxz7eFnEHrowMMjyH+x45NLhsimlk9qzeKgCjiM/FEnYSxl7KBdifqciBcu9ONbpQufsNo3b+uGgLK6oij6nyZOfgdB4+oJ87vA8u47jh8ba9AtRvrGL+t34d0bG+9qizUocReJ0S/ZjyVPUOFjXWR3Tszs7IglQOIV7nwa4Rht1sQk26PR1qh+6gzq0vfc786+dQmBV+mg0NDU9OzmGhwx6Xg/L8TKqaQt5PpbYJgLelnarF6+1q3mwBtQI1eWT3hfmpze1bZltHG9s6DB8ydrI4Tv0kzfmOgL8Dp6CyG/VIbUsXdy5Yw58uPY4IpgNwudy4XG4CAf/B70yiBTOjfQUwXOawEbOxUgfwA5tt6IxDH4fiRxXuiDed+z9GLEJFR9rJWuAPNvdhNzdiEjG4aPMe/r50e8QdHDkXYJJK3BetANgZbhsKP9aWhP6GytG+kthWumlBLQFOQ4004onhZJJNrLK431WomfrtxLbm3m7UTPpc1BJsKtOOWpY2FNSH3t3E2prInq1ut/tgeLA3EGRXs+GlXxetADxD/JfBXkLlq7fCQtSNmoWKi47FpwA4C5VtON78NQF9Wk3CEQB+hfIwcxO7810O3EDiRpuxZg0mI0d/d5BbXvycVm8EOqo5cDiVy8vK6lb83YZvyxujdY5pQv3hTzPbMUbUohxNYlG+ORVZC8wmtvkNjHgXuA3zORchPFaglqhDFglo6fKzq7GDMyaE71Pl9/sIBoM8sGgn1S2Gg6b7YuEd9wlqFHAi9mat3QicjUr3la7oqKpIY1D1EexkPmr5SgqF2sM7KEeykMunW+vbKM7JYNKA8BY/AgE/726q5+/GSUObgJtjWR14JGqddhqxrQ5chcoI80/U+7+gOBl1AY0nttWBK1Duq+/HqE0hNNNR9Q5Crvs5HRp/vGQa80b3t9zoym01XP/vtbR6DScAHwf+J9blwQVBCI/vY1JfIsPp4JbTxnDlzGGmy4Nvb6jlzgWrzWb/dVRRm7UiAIKQWDRUXMm5ZjuOK83n6uOHc+LIfhQcUh3IGwjy0dY9/GPZTpZst5Sp/nnU650gCElAMepV11K9RIem6QMLs/UJZQX64KJs3eXQwqm12EiIDMGCICSOWSj/gFgWVj3yEwQujNcPEgQhPC5FLavbJQB3xu+nCIIQCZegPB5j/eT/UTx/hCAIkTMb2EFsbv4GLJYKFwQheSgAHiTy0UAQ5ToeK58cQRASwCDgl6hSd1Zu/L3Aw6ikOKaIH4AgpA7HoFYLxqMSr+ahQuP3omonfoSqT2joBSQIgiAIgiAIghAlGmqp4U2gjtitX3YBm4HfoSZDBEUWcAuwDJUbIVbnu3V/m7cA2XH7NUJK4wFexD7vpUMvTtOAiTRgGCobkd3neyPxSzwipDBPYv/FeODTico3kK7koG7MeJ3vTcDRZWgFYT/HoRwO4nVB6qR3ooofEd9zraMSfQq9lGj9AB5ClT6KJzqqxnmNhX3HowIgYlkctAtYiqqxHnkpl8hYDUyOc5/rgYkW9z0PuIbYFgdtQqVB+zOyvp10vE78n0g6qsCCGV/C3vDKL4jthW6GhhKfeJ9rH9bKyP/CZjteRxzXko73SYwAfMXELhdhJFiI4vNcWGcrOtw2/g6zT5aJbcegns522/HNMM6XYAHbSoMVDRjM9K9eGtGxrQ11fPpCyDJqVphIfJYNz4xDH5Y4cVp/Zh8TWdzH0jV7WbS8LpruT8faKCFazgSeikM/aYNtAtB3yDAuuOuXER27a92qaAUglpVpkqEfU06fXcZd11p9VT+c3zxZEa0ApN357i301vLgFZjUYIsRL8ehj1TgdeJTIUrOd4zprQIQRFVhbbSxj3XAHTa2n0psBm7F3ln6v6HKwgkxxLZXgCRgGTAJlXd9HMpjMRa0oKoh/QmpmnMofwA+A76Fmn+J1bW1G7UMKE9/G+jNAgDKV+D2RBuRRizZ/xFShN76CiAIggVEAAQhjREBEIQ0RgRAENIYEQBBSGN6+yoAwARUNGCsfmsnsBJr0YjphguYQWyLT+4DFgPtMWxT2E9vFoB84DFUqaVY4wfuAe63oe1UZQIqOMqOcOVa4GrgPza0ndb05leAP2DPzQ8qMu8+JDrtADkoZx27chWUorwALRW7EKzTWwWgHLgyDv1IwUXFhcBIm/vIBm6yuY+0w7ZXgMbqXbz1v7+N6Nim2t3Rdj+Q+CSPSJpMxR+t3MNvnqyI6NgPVkQVCQjqfMeDwXHqR7BIsiYEKUa9p9ttx4qwzlZ0JHNCkAvjZMevwjlhgv0kc0qwX9psQ5D4JgTRiH3deCsfKynBHKi6dHbaUQ+UhHPCBPt5iPhfkEGsLTO5UDP1duQFrAUuDuM8xYo1EdobzWedRdtKUBF7dmSJXob1xKRCGET7njwdlSE3nskaPwDmhbF/DqqYRmaM+m9DVWJNRIbaO1Ejm3jyE8Jb7uyHEuhYZWGuQyVgFZKUvxG/p1EXUhhkE/E735uRwiCCCR7U0M/ui7EV88m/dGAE8akOtAn7l/aEXoIGXAS8DewldhehD9iGcuqRJaD/TzZwG7Ac5SIbq/Pdvr/N25HioGnB/wOOvXRysEVrbgAAAABJRU5ErkJggg==;" vertex="1" parent="8OQxIH6SHYgHdTAtB-A_-8">
          <mxGeometry x="130" y="30" width="110" height="110" as="geometry" />
        </mxCell>
        <mxCell id="8OQxIH6SHYgHdTAtB-A_-15" value="" style="swimlane;startSize=440;fillColor=#30B27F;strokeColor=#23445d;" vertex="1" parent="1">
          <mxGeometry x="80" y="560" width="416" height="496" as="geometry">
            <mxRectangle x="50" y="70" width="50" height="40" as="alternateBounds" />
          </mxGeometry>
        </mxCell>
        <mxCell id="8OQxIH6SHYgHdTAtB-A_-24" value="LOGIN" style="text;html=1;fontSize=24;fontStyle=7;verticalAlign=middle;align=center;" vertex="1" parent="8OQxIH6SHYgHdTAtB-A_-15">
          <mxGeometry x="130" y="90" width="120" height="40" as="geometry" />
        </mxCell>
        <mxCell id="8OQxIH6SHYgHdTAtB-A_-30" value="" style="verticalLabelPosition=bottom;verticalAlign=top;html=1;shape=mxgraph.basic.patternFillRect;fillStyle=solid;step=5;fillStrokeWidth=0.2;fillStrokeColor=#dddddd;fillColor=#99E89D;strokeColor=#36393d;" vertex="1" parent="8OQxIH6SHYgHdTAtB-A_-15">
          <mxGeometry x="110" y="290" width="180" height="40" as="geometry" />
        </mxCell>
        <mxCell id="8OQxIH6SHYgHdTAtB-A_-33" value="&lt;h1 style=&quot;margin-top: 0px; font-size: 17px;&quot;&gt;CPF/CNPJ:&lt;/h1&gt;" style="text;html=1;whiteSpace=wrap;overflow=hidden;rounded=0;fontSize=17;" vertex="1" parent="8OQxIH6SHYgHdTAtB-A_-15">
          <mxGeometry x="10" y="220" width="120" height="30" as="geometry" />
        </mxCell>
        <mxCell id="8OQxIH6SHYgHdTAtB-A_-35" value="&lt;h1 style=&quot;margin-top: 0px; font-size: 17px;&quot;&gt;SENHA:&lt;/h1&gt;" style="text;html=1;whiteSpace=wrap;overflow=hidden;rounded=0;fontSize=17;" vertex="1" parent="8OQxIH6SHYgHdTAtB-A_-15">
          <mxGeometry x="10" y="290" width="120" height="30" as="geometry" />
        </mxCell>
        <mxCell id="8OQxIH6SHYgHdTAtB-A_-36" value="" style="verticalLabelPosition=bottom;verticalAlign=top;html=1;shape=mxgraph.basic.patternFillRect;fillStyle=solid;step=5;fillStrokeWidth=0.2;fillStrokeColor=#dddddd;fillColor=#99E89D;strokeColor=#36393d;" vertex="1" parent="8OQxIH6SHYgHdTAtB-A_-15">
          <mxGeometry x="110" y="215" width="180" height="40" as="geometry" />
        </mxCell>
        <mxCell id="8OQxIH6SHYgHdTAtB-A_-43" value="" style="shape=image;imageAspect=0;aspect=fixed;verticalLabelPosition=bottom;verticalAlign=top;image=data:image/png,iVBORw0KGgoAAAANSUhEUgAAAQAAAAEACAYAAABccqhmAAAACXBIWXMAAAdhAAAHYQGVw7i2AAAAGXRFWHRTb2Z0d2FyZQB3d3cuaW5rc2NhcGUub3Jnm+48GgAAFHhJREFUeJzt3Xl4VPW9x/H3ZJIQEswGgSQsIcgaICgg620LCogssrXViq2KC+29XrRoW/cF6XPrfVyqtd6qFdt6rbV9quwCBSnaArKICQaBkLCFgCQECJB9JvePQ24jzEzOOZklyXxezzP/5Jwzv8PzcL5zzuf8FhARERERERERERERERERERERERERERERERERERERERERERERERERERERERERERERERERERERERERERERERERERERERERERERERERERERERERERERERERERERERERERERERERERERadEcoT4BadO6A/2AJMANFAFfAuWhPCkRCZw0YBGwH6j38KkBNgJzgegQnaOI+FkU8DhwAc8XvqfPXmB8KE5WRPynE7AJ8xd+448beAFoF/SzFpFmSwB2Yu/ib/z5AsgO8rmLSDP9heZf/A2fSuA+FE6LtAo347+Lv/FnOZASxH+HiFjkBPIJTAGoB44Dk4L2rwlTutUSu64D1vvaIfXKTkyYN5KMwenUVNSQ+1E+G9/eTk1lrdk26oFfAg8D1c07XfFEBUDseglY4G3joHG9mf+rbxMVE/m1v5ccLuPNhUs5lFtspa0c4BZgj50TFe+coT4BabWeBLp52tCufRQP/uk2Yjpc/mYvLrE9o+cMod7tpnBXEfX1ptpKBeYBp4Ed9k9ZLhUR6hOQVsvjxQ+Q9Y0riUto7/VAZ2QEMxaO5/4/3EpSWrzZ9toDvwaWoYDQb1QAxC6vV25yurmLuu+IDB5fcQ/DpmRZaXc6kIsCQr9QARC7vOZHEU7z/61iE2K4+6XZ3P7fNxITZ3poQCqwBngNiDXdmFxGBUD8rt7kg31jo2Zl8+iyu+iZnW72EAdwD7AZsHQLIf+iEFDsehgv/feL95cQl9iejEFplr4wLrE9Y749BIfDwYGdR6wEhHcC54FtlhoUFQCxzWsBqKt1sXtjPsf2n2TA2EyiY6JMf6kjwkHfkRkMGNuLfVsPU1FeZeawSGAyMArYgFEMxAQVALHLawFocKKglO0r8ugxMJWOXRMtfXlSWjyjZw/h9PFyju07afaw3sD3MSYdybfUYJhSARC7miwAAFXnq9n6QS4VZyrpNybTUkAY1S6Sq6/vT6fuiezdfJC6WpeZw+KA7wHpwEeA6W6H4Ug9AcWucuAKKwf0zE5n3vMz6dwz2XJjp46dYckDyyjYedTKYXkYPQhzLTcYJnQHIHaZugNo7MxX59jyfo6tgDA2PobRs7KtBoSdgTtQQOiVCoDYZbkAgH8Cwqx/u1IBoZ+oAIhdtgpAg2YFhKkKCP1FBUDsalYBAAWELYEKgNjltQCMur4P0TFRnC65YOqLDuYUs3fzIYZM6Et0e/OPBADdBnRh2A0DOPj5Mc58dc7MIQ5gGDAN+BgosdRgG6MCIHZ5LQAjr+/Lw2/Mprqilr07j5n6stMnyjl5qIzhUwdaPhENMbZPYwEkIKKindzzzEQWv3cLSZ07mDom96P9lJfYy+gaDzFOTk8we1jYDzFWAZCAGja+F699cg+jJvdtcl+3q54LZ00l+171HZHB4yvvYcSNg6wcNh1jWvKpzWq8FVIBkICLT47lyT98l3ufnUz0JVOENRYZ5STB5N2CL+2vaMe852fyg19Mp12s6SHGnYEVhNkiJSoAEhQOB0ybN5xX1t9Fr4FdPO4z+a4RxMbH+K3NMXOG8Nhyy0OMfwx8SpgMMVYIKHZ5DQGzrunGsPG9PB6U0CmWSbdcRUSEg8IvvqK22kWHhBi+u2AMdz4yjphIB1UuzAZ5TWpmQFiGsepRm6WxAGKX17EAc/59FHc/PaHJL6h313PmVAXxSe1xRv7rZtRVD6UVYH72cHP2bzvM736ynLLis1YOW4Ex30CbfF2oRwAJGUeEg6SUuK9d/ABOB3SJg46x/v2FUkB4OT0CiF22HgGsaOeEuCiorjPuCs6dusC6N7aw/Jeb2Ln6SyrPVdNjYCqOCPNloqEHYXLXBPZuPoTLWg/CBODvgKmDWgM9AohdzX4EMKseKDxynsenv3XZ7XvmkK7Me2EmKT2SLH+vFinRI4C0Ag7gw1c+8fjsfjDnGD+/8Q22vG99yH9KRjI/ee92bvjRWCKcpn8Lh2D0HPwRbeAHVAVAWoU924q8bqu6UMPvf7ac397/vtkhwv+vGT0IX6UN9CD03ivDEAtMvPjpAXRBuYEYgjof/6VBoSc7Vu2hcNcx5j0/g97De1j6/r4jMnhs+d2888Rqdq42fXc/HeOR4HZgnaUGWwhvBSAReAi4FyMAEQmpsdP6k59zvMn9yorP8sKtbzN5/limLfimrUVKBn3rSv709FqqK2rMHJaGsUhJq1zF2NOv+QRgE8bSS6b7UYo08NdbgMZ6Z6eR88/DlBaXN7lvfT3kbz/Cnk8K6Teqp891Cj3pPiCV4VMsDzEejXFH0KqGGF9aAO4C3gWa3yFbwlYgCkBklJPrvjOYqgs17PvM3BDjM1+dY8tfc0jofAXdB3jufuxNuPQgbFwApgDv0HQuIOLTyEl9GDTK2jO4GU5nBMOvvZIBw7uya9Mhqi40fYteV+siZ/0+ThSW0n9MJlHtzP/3johw0H90Jn1GZLBv62Eqz5m6u4/C6DQ0FFgPVJhuMAQaCkBXYCNGuiliW2RUBPOfmURip8BFR+mZyUy4aTBH809xrKDM1DHF+SVsX5VHxqA0K2k/AB27JjJ69hBKi85wPN/03X0/4FZgN1BgqcEgaigAL2I8w4jYFuF0cNdTE02N/W+umNhoxs0eRGLHWHL+cQhXnbvJYyrPVbN1aS6uWjd9RvSw1oMwJpJhNwygYzdLPQivwCgCLbYHoQPj9V4hTbze69wtgcyszj7Hc0v4SkyJ47rvDKb/sK5Bb/vw3hJ+Mf8DDu4xPUOwehBe5AAWAC9526F9XDT/+dwUxs8ZhKPV93uStqq2xsWSRRtY+vo200OJY+KiuemJyYyenW25PVedm5Uvb2Lt65txu0yPXa4EHgB+g9HDOeScwNMYc6Z79Nhb3+YbNw7QxS8tmgJCe5zAE0BHTxuzrunGnU9eF9wzEmmG9MxkJt6czdH9pQoITXAC/4WXDj/fmpXF0HH+fZ8rEmgxsVEKCE1yAj/3tnHouF5kj80I4umI+IfDAf2GpjN2Wn/2bC/i9Mmmpxtv6EGY93EBfUdmEJdovQfhiBsHcnj3cU4fb7rHIv/qQTgL+AfwlaUG/cAJPOVtY/bYDBUAadUSOsYy6XtDcNW52bO9yFT0Fk6rGKsASJvndEZw9bcyGTiiO59/fIjK8+YCwnBYxVgFQMJGWs8kJtyUTdGBUxQdOGXqmLa+irEKgIQVIyAcSGpGIp/9vZC62qYDwqrz1WxdurtZqxin9Ulh7z8PUltdZ+awxqsYbwBMHWSHCoCEpV6DujBmqvmAkHpjFeM9nxTaCgjT+6QwfFqW1YBwGDCTAAaEKgASthQQqgBImGuFAeF6/BgQqgCI0KoCwh/gx4BQBUDkonAMCFUARC4RTgGhCoCIB+ESEKoAiHgRDgGhCoBIE9pyQKgCIGJCWw0IVQBELGhrAaEKgIhFbSkgVAEQsaGtBIQqACLN0BAQWpmD8ERBKTtW7bE1B2FSajyjZmZbnYOwNzAX2AEcbrxBBUCkmRrmIEzqFMvnQZ6DcN+WQ9SZn4NwLsYkpLsb/qgCIOIHDgf0vTqdMVP6kffpUc6UXGjyGH+sYjzsBkurGDuBGRh3Agca/vCUt71VAESsSewUx/Vzr2rJqxhHYOQCvwcuqACI+FmoFinpO7In+7YcMrNISSyQBCxXARAJkOAvUpJgZZGSwcCbKgAiARSqgDA5PZ68jwtwu70+EziBYyoAIgHWOCDcs62I0xYCwiN5J7hm6kAcFhfn7J6VSqceSexau9fXbi7znZNFpFky+qfw0rp5zJo/wvRiu7s35rN16e6md/RgxPRB9BiY6muXwSoAIkEUFe1k/uJJLH7veyR17mDqmLxP7K8f2ueaHr42p6gAiIQx8+8aRKTZamtcLFm0gaWvbzM7qIdB37zSdnv5O4762nxSBUAkSA7vLeHZHy6lMM/8FH7Z1/Zh5IzBttrbvjKPI18c97XLFyoAIgFWXw+r3trB60+up6bK3CS+EU4Hk+ePZdqCb1p6Ddhg819z+OPjq5va7W8qACIBdPZUBS8sWMGn68xP45/cNYF5z82g93CfAZ5HFeVV/PGJ1exYtaepXWuAP6sAiATIzo0FPHfvCnMzB100fGoWtyyaQmx8jOX28rcf4a0Hl1FWfNbM7m8DxSoAIn5mJ+iLiYvmpicmM3p2tuX23C43K17+mLWv/RO3y1SDpcAjoLcAIn51ZF8pv5j/gaWgL3NIV+a9MJOUHkmW2ys5cpolC5dyMMfcyEOMiUK/D5wEFQARv2hu0GdlxuAGW97P5b1Fa0yNNryoFrgNWNPwBxUAkWZqwUFfY8cxpgzf1PiPKgAizbBr00Geu3c5p06YmpEHgKGTBzB38RTLMwABHPz8GG8uXErp0dNWDlsL3A6cuHSDCoCIDbU1Lt5+dhN/eWUL9d6H3H5NTFw0cx6awDduHmq5PbfLzepf/4PVr35iNugDqAIeAl7Gy+TlKgAiFh3ZX8qzP1xKwe7LflC96pmdzrznZ9K5Z7Ll9k4dO8OSB5ZRsNNnt95L5QG3ALm+dlIBELFg/Xu5vPLTD6mqqDW1vyPCwfhbhzPn4Yk4I60HfTs//JJ3Hltldh0AMH7pfwX8FGhybjAVABETzp6q4MX7V7J1zX7TxySnJ3DHczOaGpLrUeW5at596kO2Lf/CymEnMVYDarIPcAMVAJEmtPagzxcVABEv2krQ54sKgIgHbSno80UFQOQSbS3o80UFQOSithr0+aICIELbDvp8UQGQsBYOQZ8vKgAStsIl6PNFBUDCUjgFfb4EtADUuaGiFirrwOU2Pn69f5EWw+GAyAiIioDYKGgfBdansgy8cAz6fAlIAahzQ1mlcfFLmKg3Cnw1cL4GIhyQ0A7iY1pOIQjXoM8XvxeA8ho4XYnpudCkbXLXw+kqOF8LXeKMu4NQCfegzxe/FoBTlXAuYE8r0hrVuqD4HHSOg5gQJE4K+nyLBC4AcZ42VlWYnmuMs1W6+MUzdz2crIC0DkZGEAyhmaMvh/cWrbUyR1898EvgYQIY9PkSCRQDfTxtzNtWZOpLquuM2z0Rb9xuKLkA6VcEvq2zpyp48b4VbF0bvDn63nl8NTtXW56j73ZgneUG/cgJTAF6e9pYWlxO7+xUuvXu6PNLSi6A+UcdCVeueiMLiHYGro2dGwt45DvvciDX/C3/8KlZ/MfrN9Ml0/f/c0/ytx/h5Tv+SOFn5n4sL1oB3ADsttygnzmBZIyT8ejTdfmkpMeTmdUFh4c4t6IWynXrLybVuCC+nf+/t7bGxZtPbeDVh9ZQafIWPCYumrmLpzLjx+OIamctoHDVuVnx0ib+99GVVt7tVwL3AQ9iPHqHnAPoDhTSRCCY0jWeXgO7EH1JklPjMl77SXjrkBTLqFnZZF7Vtcl90zqAxevNp1awGAdADkbQZ+k5IdAaftNfB+4O5YlI6xfhdDDnZxO47o6RPvdLiIEk60vfXUZBX/M1FIB0jFcRiSE8F2kDnJERPLr8btL7pHjdJy4KUjy+dzJPQZ9/NNyIFWOsGrISIxcQscVV5ybnb/t8FoDmPjK28FV3G6wA7gRKLDcYRI2fxNYA84HfoEFC0gxNhWImO+NdprbGxVvPfMQHr30alFV3XXVuVv7K0qq7YAR9D2BcRy3+3dilF/qbwEHgXaBz8E9HxLOgB32Hy1jywLI2EfT54umX/iOgL8YwxAVAh6CekUgjCvoCy9ut/lngUWAxMAGYCGQAXXwcI+HlKgKcF9kK+tITmPe8gj6zmrqYKzHCjBVBOBdpXcqBgHXs1dDd4NCvubQoGrobXCoA0mJo6G7wqQBIi2B3jr7ZD00gMsp6FLH1g1z+9PQaq0FfwOfoCzYVAAkpzdEXWioAEjIK+kJPBUCCrq7GxZJnFPS1BCoAElQnCkpZsnApR/Yo6GsJVAAkaLZ+kMu7T35IdaWCvpZCBUAC7lxZBW8/spLcDQr6WhoVAAmoLzcf5Hc/Wc7Zkwr6WiIVAAmIuhoXK17axLrfKuhryVrKqk3S+ngdC5B9bR/Kissp2quhuy2dCoDY5ZfBQAr6QkuPABIyCvpCTwVAQuLq6/tz68+nKugLMRUACaro2GgmLpzI9Nuutnysgj7/UwGQoEnLSmf64ll0yUzG6rWoHn2BoQIgAeeIcDD0u9cw/r4JOBX0tSgqABJQ8akJTFs0k+5DFfS1RCoAEjD9rh3A5MemEhNvPegr3FXEkgeWKegLMBUA8bvo2GjG3z+Rq2arR19LpwIgfjdk1lBbF3/J4TLeXLiUQ7nFVg5Tj75mUAEQv3PY6F+qoC80VADELq+32m4Li//ZXIzjBHAbrXQxjpZEBUDsOgvEe9pQfsLcKrptedXd1kIFQOwqArp72nBwSwGVZytp76Wbr7vOzbIXN9lZdfdB4H9Q0Oc3AV3bTdq0bGCkpw3uOjclB76i37UDiIj8+uKcp4+W8ef73mXXqjzTS3xjBH3Xo3f7fqfhwGLXtcAGXzt07NmJa+aOJDUrndrKWg58vJ/P/rKdWpNzAtKKV90VaesigH0YF2kgPseBSUH714iIZTcRmIt/OZASxH+HiNj0Z/x34VcC96FHU5FWIx7YQfMv/i8wgkURaWU6Ahuxd+G7gReAdkE/axHxmyjgUeAC1n71x4XgXEUkQNKAZ4B8PF/01cB6jAAxKkTnKBcpbJFA6gb0B5IwLvyTGJ16KkN5UiIiIiIiIiIiIiIiIiIiIiIiIiIiIiIiIiIiIiIiIiIiIiIiIiIiIiIiIiIiIiIiIiIiIiIiIiIiIiIiIiIiIiIiIiIiIiIiIiIiIiIiIiIiIiIiIiIiIiIiIiIiIiIiIiIiIiIi0mr8H+7LXJ/o0EcMAAAAAElFTkSuQmCC;" vertex="1" parent="8OQxIH6SHYgHdTAtB-A_-15">
          <mxGeometry x="294" y="360" width="80" height="80" as="geometry" />
        </mxCell>
        <mxCell id="8OQxIH6SHYgHdTAtB-A_-37" value="" style="swimlane;startSize=440;fillColor=#30B27F;strokeColor=#23445d;" vertex="1" parent="1">
          <mxGeometry x="550" y="560" width="380" height="440" as="geometry">
            <mxRectangle x="50" y="70" width="50" height="40" as="alternateBounds" />
          </mxGeometry>
        </mxCell>
        <mxCell id="8OQxIH6SHYgHdTAtB-A_-38" value="CADASTRAR" style="text;html=1;fontSize=24;fontStyle=7;verticalAlign=middle;align=center;" vertex="1" parent="8OQxIH6SHYgHdTAtB-A_-37">
          <mxGeometry x="110" y="70" width="120" height="40" as="geometry" />
        </mxCell>
        <mxCell id="8OQxIH6SHYgHdTAtB-A_-40" value="&lt;h1 style=&quot;margin-top: 0px; font-size: 17px;&quot;&gt;NOME:&lt;/h1&gt;" style="text;html=1;whiteSpace=wrap;overflow=hidden;rounded=0;fontSize=17;" vertex="1" parent="8OQxIH6SHYgHdTAtB-A_-37">
          <mxGeometry x="10" y="150" width="120" height="30" as="geometry" />
        </mxCell>
        <mxCell id="8OQxIH6SHYgHdTAtB-A_-41" value="&lt;h1 style=&quot;margin-top: 0px; font-size: 15px;&quot;&gt;CPF/CNPJ:&lt;/h1&gt;" style="text;html=1;whiteSpace=wrap;overflow=hidden;rounded=0;fontSize=15;" vertex="1" parent="8OQxIH6SHYgHdTAtB-A_-37">
          <mxGeometry x="10" y="200" width="90" height="25" as="geometry" />
        </mxCell>
        <mxCell id="8OQxIH6SHYgHdTAtB-A_-42" value="" style="verticalLabelPosition=bottom;verticalAlign=top;html=1;shape=mxgraph.basic.patternFillRect;fillStyle=solid;step=5;fillStrokeWidth=0.2;fillStrokeColor=#dddddd;fillColor=#99E89D;strokeColor=#36393d;" vertex="1" parent="8OQxIH6SHYgHdTAtB-A_-37">
          <mxGeometry x="100" y="150" width="180" height="25" as="geometry" />
        </mxCell>
        <mxCell id="8OQxIH6SHYgHdTAtB-A_-44" value="" style="shape=image;imageAspect=0;aspect=fixed;verticalLabelPosition=bottom;verticalAlign=top;image=data:image/png,iVBORw0KGgoAAAANSUhEUgAAAQAAAAEACAYAAABccqhmAAAACXBIWXMAAAdhAAAHYQGVw7i2AAAAGXRFWHRTb2Z0d2FyZQB3d3cuaW5rc2NhcGUub3Jnm+48GgAAFHhJREFUeJzt3Xl4VPW9x/H3ZJIQEswGgSQsIcgaICgg620LCogssrXViq2KC+29XrRoW/cF6XPrfVyqtd6qFdt6rbV9quwCBSnaArKICQaBkLCFgCQECJB9JvePQ24jzEzOOZklyXxezzP/5Jwzv8PzcL5zzuf8FhARERERERERERERERERERERERERERERERERERERERERERERERERERERERERERERERERERERERERERERERERERERERERERERERERERERERERERERERERERERERERERERERERERERadEcoT4BadO6A/2AJMANFAFfAuWhPCkRCZw0YBGwH6j38KkBNgJzgegQnaOI+FkU8DhwAc8XvqfPXmB8KE5WRPynE7AJ8xd+448beAFoF/SzFpFmSwB2Yu/ib/z5AsgO8rmLSDP9heZf/A2fSuA+FE6LtAo347+Lv/FnOZASxH+HiFjkBPIJTAGoB44Dk4L2rwlTutUSu64D1vvaIfXKTkyYN5KMwenUVNSQ+1E+G9/eTk1lrdk26oFfAg8D1c07XfFEBUDseglY4G3joHG9mf+rbxMVE/m1v5ccLuPNhUs5lFtspa0c4BZgj50TFe+coT4BabWeBLp52tCufRQP/uk2Yjpc/mYvLrE9o+cMod7tpnBXEfX1ptpKBeYBp4Ed9k9ZLhUR6hOQVsvjxQ+Q9Y0riUto7/VAZ2QEMxaO5/4/3EpSWrzZ9toDvwaWoYDQb1QAxC6vV25yurmLuu+IDB5fcQ/DpmRZaXc6kIsCQr9QARC7vOZHEU7z/61iE2K4+6XZ3P7fNxITZ3poQCqwBngNiDXdmFxGBUD8rt7kg31jo2Zl8+iyu+iZnW72EAdwD7AZsHQLIf+iEFDsehgv/feL95cQl9iejEFplr4wLrE9Y749BIfDwYGdR6wEhHcC54FtlhoUFQCxzWsBqKt1sXtjPsf2n2TA2EyiY6JMf6kjwkHfkRkMGNuLfVsPU1FeZeawSGAyMArYgFEMxAQVALHLawFocKKglO0r8ugxMJWOXRMtfXlSWjyjZw/h9PFyju07afaw3sD3MSYdybfUYJhSARC7miwAAFXnq9n6QS4VZyrpNybTUkAY1S6Sq6/vT6fuiezdfJC6WpeZw+KA7wHpwEeA6W6H4Ug9AcWucuAKKwf0zE5n3vMz6dwz2XJjp46dYckDyyjYedTKYXkYPQhzLTcYJnQHIHaZugNo7MxX59jyfo6tgDA2PobRs7KtBoSdgTtQQOiVCoDYZbkAgH8Cwqx/u1IBoZ+oAIhdtgpAg2YFhKkKCP1FBUDsalYBAAWELYEKgNjltQCMur4P0TFRnC65YOqLDuYUs3fzIYZM6Et0e/OPBADdBnRh2A0DOPj5Mc58dc7MIQ5gGDAN+BgosdRgG6MCIHZ5LQAjr+/Lw2/Mprqilr07j5n6stMnyjl5qIzhUwdaPhENMbZPYwEkIKKindzzzEQWv3cLSZ07mDom96P9lJfYy+gaDzFOTk8we1jYDzFWAZCAGja+F699cg+jJvdtcl+3q54LZ00l+171HZHB4yvvYcSNg6wcNh1jWvKpzWq8FVIBkICLT47lyT98l3ufnUz0JVOENRYZ5STB5N2CL+2vaMe852fyg19Mp12s6SHGnYEVhNkiJSoAEhQOB0ybN5xX1t9Fr4FdPO4z+a4RxMbH+K3NMXOG8Nhyy0OMfwx8SpgMMVYIKHZ5DQGzrunGsPG9PB6U0CmWSbdcRUSEg8IvvqK22kWHhBi+u2AMdz4yjphIB1UuzAZ5TWpmQFiGsepRm6WxAGKX17EAc/59FHc/PaHJL6h313PmVAXxSe1xRv7rZtRVD6UVYH72cHP2bzvM736ynLLis1YOW4Ex30CbfF2oRwAJGUeEg6SUuK9d/ABOB3SJg46x/v2FUkB4OT0CiF22HgGsaOeEuCiorjPuCs6dusC6N7aw/Jeb2Ln6SyrPVdNjYCqOCPNloqEHYXLXBPZuPoTLWg/CBODvgKmDWgM9AohdzX4EMKseKDxynsenv3XZ7XvmkK7Me2EmKT2SLH+vFinRI4C0Ag7gw1c+8fjsfjDnGD+/8Q22vG99yH9KRjI/ee92bvjRWCKcpn8Lh2D0HPwRbeAHVAVAWoU924q8bqu6UMPvf7ac397/vtkhwv+vGT0IX6UN9CD03ivDEAtMvPjpAXRBuYEYgjof/6VBoSc7Vu2hcNcx5j0/g97De1j6/r4jMnhs+d2888Rqdq42fXc/HeOR4HZgnaUGWwhvBSAReAi4FyMAEQmpsdP6k59zvMn9yorP8sKtbzN5/limLfimrUVKBn3rSv709FqqK2rMHJaGsUhJq1zF2NOv+QRgE8bSS6b7UYo08NdbgMZ6Z6eR88/DlBaXN7lvfT3kbz/Cnk8K6Teqp891Cj3pPiCV4VMsDzEejXFH0KqGGF9aAO4C3gWa3yFbwlYgCkBklJPrvjOYqgs17PvM3BDjM1+dY8tfc0jofAXdB3jufuxNuPQgbFwApgDv0HQuIOLTyEl9GDTK2jO4GU5nBMOvvZIBw7uya9Mhqi40fYteV+siZ/0+ThSW0n9MJlHtzP/3johw0H90Jn1GZLBv62Eqz5m6u4/C6DQ0FFgPVJhuMAQaCkBXYCNGuiliW2RUBPOfmURip8BFR+mZyUy4aTBH809xrKDM1DHF+SVsX5VHxqA0K2k/AB27JjJ69hBKi85wPN/03X0/4FZgN1BgqcEgaigAL2I8w4jYFuF0cNdTE02N/W+umNhoxs0eRGLHWHL+cQhXnbvJYyrPVbN1aS6uWjd9RvSw1oMwJpJhNwygYzdLPQivwCgCLbYHoQPj9V4hTbze69wtgcyszj7Hc0v4SkyJ47rvDKb/sK5Bb/vw3hJ+Mf8DDu4xPUOwehBe5AAWAC9526F9XDT/+dwUxs8ZhKPV93uStqq2xsWSRRtY+vo200OJY+KiuemJyYyenW25PVedm5Uvb2Lt65txu0yPXa4EHgB+g9HDOeScwNMYc6Z79Nhb3+YbNw7QxS8tmgJCe5zAE0BHTxuzrunGnU9eF9wzEmmG9MxkJt6czdH9pQoITXAC/4WXDj/fmpXF0HH+fZ8rEmgxsVEKCE1yAj/3tnHouF5kj80I4umI+IfDAf2GpjN2Wn/2bC/i9Mmmpxtv6EGY93EBfUdmEJdovQfhiBsHcnj3cU4fb7rHIv/qQTgL+AfwlaUG/cAJPOVtY/bYDBUAadUSOsYy6XtDcNW52bO9yFT0Fk6rGKsASJvndEZw9bcyGTiiO59/fIjK8+YCwnBYxVgFQMJGWs8kJtyUTdGBUxQdOGXqmLa+irEKgIQVIyAcSGpGIp/9vZC62qYDwqrz1WxdurtZqxin9Ulh7z8PUltdZ+awxqsYbwBMHWSHCoCEpV6DujBmqvmAkHpjFeM9nxTaCgjT+6QwfFqW1YBwGDCTAAaEKgASthQQqgBImGuFAeF6/BgQqgCI0KoCwh/gx4BQBUDkonAMCFUARC4RTgGhCoCIB+ESEKoAiHgRDgGhCoBIE9pyQKgCIGJCWw0IVQBELGhrAaEKgIhFbSkgVAEQsaGtBIQqACLN0BAQWpmD8ERBKTtW7bE1B2FSajyjZmZbnYOwNzAX2AEcbrxBBUCkmRrmIEzqFMvnQZ6DcN+WQ9SZn4NwLsYkpLsb/qgCIOIHDgf0vTqdMVP6kffpUc6UXGjyGH+sYjzsBkurGDuBGRh3Agca/vCUt71VAESsSewUx/Vzr2rJqxhHYOQCvwcuqACI+FmoFinpO7In+7YcMrNISSyQBCxXARAJkOAvUpJgZZGSwcCbKgAiARSqgDA5PZ68jwtwu70+EziBYyoAIgHWOCDcs62I0xYCwiN5J7hm6kAcFhfn7J6VSqceSexau9fXbi7znZNFpFky+qfw0rp5zJo/wvRiu7s35rN16e6md/RgxPRB9BiY6muXwSoAIkEUFe1k/uJJLH7veyR17mDqmLxP7K8f2ueaHr42p6gAiIQx8+8aRKTZamtcLFm0gaWvbzM7qIdB37zSdnv5O4762nxSBUAkSA7vLeHZHy6lMM/8FH7Z1/Zh5IzBttrbvjKPI18c97XLFyoAIgFWXw+r3trB60+up6bK3CS+EU4Hk+ePZdqCb1p6Ddhg819z+OPjq5va7W8qACIBdPZUBS8sWMGn68xP45/cNYF5z82g93CfAZ5HFeVV/PGJ1exYtaepXWuAP6sAiATIzo0FPHfvCnMzB100fGoWtyyaQmx8jOX28rcf4a0Hl1FWfNbM7m8DxSoAIn5mJ+iLiYvmpicmM3p2tuX23C43K17+mLWv/RO3y1SDpcAjoLcAIn51ZF8pv5j/gaWgL3NIV+a9MJOUHkmW2ys5cpolC5dyMMfcyEOMiUK/D5wEFQARv2hu0GdlxuAGW97P5b1Fa0yNNryoFrgNWNPwBxUAkWZqwUFfY8cxpgzf1PiPKgAizbBr00Geu3c5p06YmpEHgKGTBzB38RTLMwABHPz8GG8uXErp0dNWDlsL3A6cuHSDCoCIDbU1Lt5+dhN/eWUL9d6H3H5NTFw0cx6awDduHmq5PbfLzepf/4PVr35iNugDqAIeAl7Gy+TlKgAiFh3ZX8qzP1xKwe7LflC96pmdzrznZ9K5Z7Ll9k4dO8OSB5ZRsNNnt95L5QG3ALm+dlIBELFg/Xu5vPLTD6mqqDW1vyPCwfhbhzPn4Yk4I60HfTs//JJ3Hltldh0AMH7pfwX8FGhybjAVABETzp6q4MX7V7J1zX7TxySnJ3DHczOaGpLrUeW5at596kO2Lf/CymEnMVYDarIPcAMVAJEmtPagzxcVABEv2krQ54sKgIgHbSno80UFQOQSbS3o80UFQOSithr0+aICIELbDvp8UQGQsBYOQZ8vKgAStsIl6PNFBUDCUjgFfb4EtADUuaGiFirrwOU2Pn69f5EWw+GAyAiIioDYKGgfBdansgy8cAz6fAlIAahzQ1mlcfFLmKg3Cnw1cL4GIhyQ0A7iY1pOIQjXoM8XvxeA8ho4XYnpudCkbXLXw+kqOF8LXeKMu4NQCfegzxe/FoBTlXAuYE8r0hrVuqD4HHSOg5gQJE4K+nyLBC4AcZ42VlWYnmuMs1W6+MUzdz2crIC0DkZGEAyhmaMvh/cWrbUyR1898EvgYQIY9PkSCRQDfTxtzNtWZOpLquuM2z0Rb9xuKLkA6VcEvq2zpyp48b4VbF0bvDn63nl8NTtXW56j73ZgneUG/cgJTAF6e9pYWlxO7+xUuvXu6PNLSi6A+UcdCVeueiMLiHYGro2dGwt45DvvciDX/C3/8KlZ/MfrN9Ml0/f/c0/ytx/h5Tv+SOFn5n4sL1oB3ADsttygnzmBZIyT8ejTdfmkpMeTmdUFh4c4t6IWynXrLybVuCC+nf+/t7bGxZtPbeDVh9ZQafIWPCYumrmLpzLjx+OIamctoHDVuVnx0ib+99GVVt7tVwL3AQ9iPHqHnAPoDhTSRCCY0jWeXgO7EH1JklPjMl77SXjrkBTLqFnZZF7Vtcl90zqAxevNp1awGAdADkbQZ+k5IdAaftNfB+4O5YlI6xfhdDDnZxO47o6RPvdLiIEk60vfXUZBX/M1FIB0jFcRiSE8F2kDnJERPLr8btL7pHjdJy4KUjy+dzJPQZ9/NNyIFWOsGrISIxcQscVV5ybnb/t8FoDmPjK28FV3G6wA7gRKLDcYRI2fxNYA84HfoEFC0gxNhWImO+NdprbGxVvPfMQHr30alFV3XXVuVv7K0qq7YAR9D2BcRy3+3dilF/qbwEHgXaBz8E9HxLOgB32Hy1jywLI2EfT54umX/iOgL8YwxAVAh6CekUgjCvoCy9ut/lngUWAxMAGYCGQAXXwcI+HlKgKcF9kK+tITmPe8gj6zmrqYKzHCjBVBOBdpXcqBgHXs1dDd4NCvubQoGrobXCoA0mJo6G7wqQBIi2B3jr7ZD00gMsp6FLH1g1z+9PQaq0FfwOfoCzYVAAkpzdEXWioAEjIK+kJPBUCCrq7GxZJnFPS1BCoAElQnCkpZsnApR/Yo6GsJVAAkaLZ+kMu7T35IdaWCvpZCBUAC7lxZBW8/spLcDQr6WhoVAAmoLzcf5Hc/Wc7Zkwr6WiIVAAmIuhoXK17axLrfKuhryVrKqk3S+ngdC5B9bR/Kissp2quhuy2dCoDY5ZfBQAr6QkuPABIyCvpCTwVAQuLq6/tz68+nKugLMRUACaro2GgmLpzI9Nuutnysgj7/UwGQoEnLSmf64ll0yUzG6rWoHn2BoQIgAeeIcDD0u9cw/r4JOBX0tSgqABJQ8akJTFs0k+5DFfS1RCoAEjD9rh3A5MemEhNvPegr3FXEkgeWKegLMBUA8bvo2GjG3z+Rq2arR19LpwIgfjdk1lBbF3/J4TLeXLiUQ7nFVg5Tj75mUAEQv3PY6F+qoC80VADELq+32m4Li//ZXIzjBHAbrXQxjpZEBUDsOgvEe9pQfsLcKrptedXd1kIFQOwqArp72nBwSwGVZytp76Wbr7vOzbIXN9lZdfdB4H9Q0Oc3AV3bTdq0bGCkpw3uOjclB76i37UDiIj8+uKcp4+W8ef73mXXqjzTS3xjBH3Xo3f7fqfhwGLXtcAGXzt07NmJa+aOJDUrndrKWg58vJ/P/rKdWpNzAtKKV90VaesigH0YF2kgPseBSUH714iIZTcRmIt/OZASxH+HiNj0Z/x34VcC96FHU5FWIx7YQfMv/i8wgkURaWU6Ahuxd+G7gReAdkE/axHxmyjgUeAC1n71x4XgXEUkQNKAZ4B8PF/01cB6jAAxKkTnKBcpbJFA6gb0B5IwLvyTGJ16KkN5UiIiIiIiIiIiIiIiIiIiIiIiIiIiIiIiIiIiIiIiIiIiIiIiIiIiIiIiIiIiIiIiIiIiIiIiIiIiIiIiIiIiIiIiIiIiIiIiIiIiIiIiIiIiIiIiIiIiIiIiIiIiIiIiIiIiIiIi0mr8H+7LXJ/o0EcMAAAAAElFTkSuQmCC;fontColor=#F19C99;" vertex="1" parent="8OQxIH6SHYgHdTAtB-A_-37">
          <mxGeometry x="270" y="360" width="80" height="80" as="geometry" />
        </mxCell>
        <mxCell id="8OQxIH6SHYgHdTAtB-A_-46" value="" style="verticalLabelPosition=bottom;verticalAlign=top;html=1;shape=mxgraph.basic.patternFillRect;fillStyle=solid;step=5;fillStrokeWidth=0.2;fillStrokeColor=#dddddd;fillColor=#99E89D;strokeColor=#36393d;" vertex="1" parent="8OQxIH6SHYgHdTAtB-A_-37">
          <mxGeometry x="100" y="200" width="180" height="25" as="geometry" />
        </mxCell>
        <mxCell id="8OQxIH6SHYgHdTAtB-A_-47" value="&lt;h1 style=&quot;margin-top: 0px; font-size: 15px;&quot;&gt;SENHA:&lt;/h1&gt;" style="text;html=1;whiteSpace=wrap;overflow=hidden;rounded=0;fontSize=15;" vertex="1" parent="8OQxIH6SHYgHdTAtB-A_-37">
          <mxGeometry x="10" y="260" width="90" height="25" as="geometry" />
        </mxCell>
        <mxCell id="8OQxIH6SHYgHdTAtB-A_-56" value="" style="verticalLabelPosition=bottom;verticalAlign=top;html=1;shape=mxgraph.basic.patternFillRect;fillStyle=solid;step=5;fillStrokeWidth=0.2;fillStrokeColor=#dddddd;fillColor=#99E89D;strokeColor=#36393d;" vertex="1" parent="8OQxIH6SHYgHdTAtB-A_-37">
          <mxGeometry x="100" y="270" width="180" height="25" as="geometry" />
        </mxCell>
        <mxCell id="8OQxIH6SHYgHdTAtB-A_-61" value="&lt;h1 style=&quot;margin-top: 0px; font-size: 14px;&quot;&gt;CONFIRMAR SENHA:&lt;/h1&gt;" style="text;html=1;whiteSpace=wrap;overflow=hidden;rounded=0;fontSize=14;" vertex="1" parent="8OQxIH6SHYgHdTAtB-A_-37">
          <mxGeometry y="320" width="130" height="40" as="geometry" />
        </mxCell>
        <mxCell id="8OQxIH6SHYgHdTAtB-A_-62" value="" style="verticalLabelPosition=bottom;verticalAlign=top;html=1;shape=mxgraph.basic.patternFillRect;fillStyle=solid;step=5;fillStrokeWidth=0.2;fillStrokeColor=#dddddd;fillColor=#99E89D;strokeColor=#36393d;" vertex="1" parent="8OQxIH6SHYgHdTAtB-A_-37">
          <mxGeometry x="100" y="327.5" width="180" height="25" as="geometry" />
        </mxCell>
        <mxCell id="8OQxIH6SHYgHdTAtB-A_-63" value="" style="swimlane;startSize=440;fillColor=#30B27F;strokeColor=#23445d;fontColor=#76DB9B;" vertex="1" parent="1">
          <mxGeometry x="120" y="1110" width="410" height="440" as="geometry">
            <mxRectangle x="50" y="70" width="50" height="40" as="alternateBounds" />
          </mxGeometry>
        </mxCell>
        <mxCell id="8OQxIH6SHYgHdTAtB-A_-64" value="OLHAND DE PERTO,GERINDO DE LONGE" style="text;html=1;fontSize=16;fontStyle=3;verticalAlign=middle;align=center;fontFamily=Georgia;fontColor=#76DB9B;" vertex="1" parent="8OQxIH6SHYgHdTAtB-A_-63">
          <mxGeometry x="85" y="50" width="235" height="30" as="geometry" />
        </mxCell>
        <mxCell id="8OQxIH6SHYgHdTAtB-A_-10" value="" style="shape=image;imageAspect=0;aspect=fixed;verticalLabelPosition=bottom;verticalAlign=top;image=data:image/png,iVBORw0KGgoAAAANSUhEUgAAAQAAAAEACAYAAABccqhmAAAABHNCSVQICAgIfAhkiAAAAAlwSFlzAAAHYgAAB2IBOHqZ2wAAABl0RVh0U29mdHdhcmUAd3d3Lmlua3NjYXBlLm9yZ5vuPBoAACAASURBVHic7Z13eBzVuf8/M7urVS+2ZVuyLEvulo17w8bdgKkmmEAAEzoJcEMaJPmFJIQ0bpIbEkIKXHITAoFQQq8GDO4dV2zjLtuqVm/bd+f3x0hGtjVnZle70so+n+fRY9hzZubY2vc7p7xFQSLpWpKBwUABMAjIB3KA3kCvdj82QAEyW68LAQ2t/+0Dak/7OQ4ca/05Chxu7ScRoHT3ACRnNfnAdGA8MLr1pxBQu+DZfuAAsLv1ZyuwETjRBc/uMUgBkEQLBRgLLAQuAKahv9njjSPABmA18CFwsHuHI5H0XLKAm4DngEpA64E/R4D/Ba4CkqL7zyORnH1kA3cB76OvsbvbgKP50wy8DFwPpEbrH0wi6enY0Kf2LwFeut9Qu+LH3fr3XYhcKkvOUfKB/wYq6H6D7M6fQ8AP0E8qziqkskk6YhZwH/q62B7LBymKij01HUdKOrakFOyJydiciajOJBRF/3qqDichvxcALRgk5PcScLsIeloIuF0EXE34mxtEj4kWbuBfwB+Bz7rigbFGCoCkPZcCP0Y/uosqjtQMEvvkkNQnh8Q+OTh79SUhPQtHWiaKauv0/bVgAF9jHb7GWry1lbiryvFUl+OuKiPocUXhb3Dq44B3gJ8Dm6J9865ECoAE4Ap0w58SjZspqo2U3AKScwtIGVBISk4BjrRM8wtjhLeuipayYlxlxTSXHsJ9ohQ0LVq3fw9dCNZH64ZdiRSAc5tpwO+AmZ29kTOzD+lDRpNWMJLU/GHYEhI7P7oYEXA103R0H03Fn9N4aDf+lsZo3PZV9H2CA9G4WVchBeDcpAB4BLiOTnwHErNzyRw+jszh40nqOyBaY+taNI3m0sM07N9B/b7t+BprO3M3P/AX9BlBTVTGF2OkAJxbOIB7gF8CKZHcwOZMImvURLJGTyU1b0hUBxcPuCqOUbNjLbV7thDyeSO9TR3wMPA4egxD3CIF4NxhJvAkuj9+2KTmDaHPpDlkDhuHYuv8pl28E/R5qNvzKVVbV+KpKov0NiuBrwOfR29k0UUKwNlPMvAb9Dd/WL9vxWYjq2gKfSfNJalfXkwGF/9oNB3dT9WWFTQc/Az9ACAsvOizgd8AwWiPrrNIATi7mQI8C4wI5yLFZiNr5CT6X3Apzsw+MRmYr7EOT3U5/uYG/E31+Fua8DfVEXA1EXA1AxD0utHa79ZrIWzOJGzOZGyJydgSk7AnpWBPTsPZqy+JvfuR2KsftsTkmIzZU1VG5caPqNuzBU0Le2a/AfgqcbZJKAXg7MQG/Kj1x7Ijj6Kq9B43k/7nXxzFYzsNd1UZrorjuE+U4D5RhvtESSzO5k9iT0rF2bsvSdkDSM0bQurAoVE9hvRUl1O+5h3q920P99Im4FvA36M2mE4iBeDsow96dN5F4VyUVjCCAfOXkJSd2+kB+BrrTh6zNRXvI+Bq6vQ9O4szsw8peUNIzR9GesHIqAhCS1kxZZ+8RnPJoXAv/RfwNSB2KmgRKQBnF9PRo9ksL9gT+/Rn4IXXkpo/vFMPdleVUrt7M40Hd+GpqezUvWKPQsqAQjJHTiBrxIROioFG3Z5PKf3ktXDdkXcAS9DjDLoNKQBnD3ehHzslWOms2h30O/9i+k27MOJdfX9TPXV7tlC7ezPuqtKI7tH96GKQNXIiWaOnYE+K6HSUoNdN2cq3qN6+Ohwvw3r00OP3I3poFJAC0PNRgV8D91u9IHXgUPIvuRFnVnYEj9NoOLSbqi2f0HR0fzRdarsd1e4gq2gy2ZPmRuzY1FJ2hGPvPoenpsLqJQHgG8ATET2wk0gB6NkkAv8AvmKls6La6Hf+xfSfuQhFCS8tnxYMUrd3C5UbP8JTXR7BUHsWyf3zyZ40h6yiKShqeP9WoYCfirXvUrnxo3AE8o/At+lixyEpAD2XLOBdLEbuJWXnMuiKm0nKDu/NFvR6qN62iqpPV8Y05DYjM4vs/jn0y8klu38OiYl6dq7k1FQcdgcAgWCAxro6GurrqK+rpbG+jtqaak6UR+yoY4ozK5ucCy4ja9QkUMIzl6bifRx991n8TfVWL/kPcCNdmM1YCkDPpC+wDD3brilZRVPIX3Q9qsPS9gAAmhaiZsc6yle/E7VdfEVRyBtUSNHY8Yw8bxwjx4xleNEY+ufm4UyMPHjI1dLMkQP7OXJQ/zm8/3N2bd1C8aHoHbkn9c0jd86VpA8uCuu6gLuZ4jefpqnYsjPge+ibg+4whxgRUgB6Hv3Rs9mOMeuo2OwMmHsV2ZPnhvWApiN7Kfnktc64wJ5k6MgiLph/ITPmLWTqzNmkpqV3+p5WqaqsYMu61Wxet5rNa1exb/cuQqHOzbBTBw4jd+6VpOQWWr5G00JUrH2finXvWV0SrEIP0Y5KmKIIKQA9izx0//LBZh3tyWkMXnJXWF9Ub10VJcv/Q+Oh3REP0O5wMHvhIhYtXsIF8y+kb07n/QqiRVVlBR+8+SrvvvYyW9atJhiM1DNXoc/4meTOvQqb0/rMpX7fdo6+8wwhv6UZ/gZ0X46YOlFIAeg5ZKMb/yizjs6sbIZ8+Z6wdvndVaXs/9fvCfk8EQ1uwtTzWXzdjVy25DqyesfGfTiaVJ+o5IO3XuONF/7FpxvWRnQPR1omAy+6joyh51m+xlV+lMOvPGk1B8Fa4GKgJaIBWkAKQM+gF/AJeuENIWmDRlD4pTuwOcNLcX/4lSdpOLgrrGuSU1K57pY7WHrXvQwaPDSsa+OJ3du38swTj/P2Ky/g9YQvgFmjJpG38BrsyWmW+vsaajj0n7/iqbZ0VPgeem7GmGwMSgGIf1KAj4GpZh0zho2lcPFtKLbw83juePQ7VqemZPfrz81338f1t3+djMyssJ8Vr9RWV/Hi00/xzBOPU1Vp+Rwf0OMPBl1xM+mFphM0AALuFg69/Bdc5UetdH8Z/ag36keEZ39gd89GBV4EFph1zBo1iYIrb43I+AEq1y9DC4nXxP1yB/DDX/2OX//1H0ybNffkUd3ZQlJyClNmzOLGO+4mOSWFz7Z9is9rLSlIKOCjbs8WFHRHK7MjQ9WRQK9Rk3GVF+NrME0eNBr9RfChpcGEgRSA+OZR4BazTr3Hnk/+ZUs7lV03UFuJ60TH7rxJySncc/8PeezpfzN+ynRs9phmCu92HI4EpsyYxVduvZNgKMieHdsIBgKWrm0+dgBX+VHSBxeZHrsqNjuZIyboIlBvKgIz0MuvbbE0EItIAYhf7gV+ZtYpq2gKgy5dGrZnX3sKc7J56Jv3sOHjD6iv/eKLqKoqX7rhqzzx79dYcOmVOMLwIzgbSExKZtaCi7j6hps5XnyYwwf2WbrOW1dF/d6tpA4cgiM1Q9hXsdnIHDGBluMH8TXWmd16EbCZKBY0lXsA8ckM9E0/ocVlDBtL4VV3hO2q2p6FE0Zz28WzcNhteD0e3nz5eXZv30pKSipXXHsDI8eY7jueM7z76kv87IH7qD5hLdpRdSRQuPh20oeYZ2ELej0cfPFxK3sC9cBkohRFKAUg/sgBPsWktHZa4SiGLPl6xJF8yc4E7r5iPtNHnn2JPWNJY0M9v/nx93nx6adOzVZkgKKqDLz4enqPPd+0b8Ddwv7nfo/XPJBoO/pLotPegnIJEF/Ygbcw8fJL7NOfodfea9G1VyPgakZ1OE9+MqB3Fg9/9UuMHCjUGEkHOBMTmX/JFYweN4HVHy0zPzbUNBoOfoY9MZmU3AJhV9WRQMaQ0dTs2YImPpHpj57a/dWwBt8BcgYQX/wK+H+iDo7UDIbfdD8J6eLjNy0UpGzVW9RsX0vQ68aWmEz2pLnM+8ptfO+6y0hLit/CHW2EQiE2r11F2fFjJCYlkZaeQVJKCskpqWRkZtEvJ7dbNySPFx/mnhuXsHentdRg/c+/mJzZV5j2ayg9wuF/PwZB043HW4GnLT3cACkA8cMs9HW/4axMtTsYduO3Se6fL7yRpoUofuMf1O/bdkbbnd/6Pt//+X93dqwxp6K0hG/e8hWhl54jIYH8wiEMGT6SwqHDGTJiFJPOn9mlTkket5uHvn0Przz3tKX+/aYtJHfuVab9Du9YT8P7z5l1awLGAUcsPbwDpADEBxno67oCUaf8S5fS+zyT6F9N4+i7/6L2s40dNjsTE9le2oAjIX539DVNY+ll89m4ekVE1+cOzGf67HmcP3s+M+YuoF9u7KsWPf9/T/Dw/d+wdFyYM+sy+s+4RNjHFwqyd9lLhHaauimvBeYQYcpxuQcQHzwJzBV16DN+pumXBuD4hy9Rs3OdYXswEODya75C7+y+4Y6xy9i9fSu/e/iHEV/f1NjA3l07+PDt13n6L39g/apP0NDILxxCgtNpfoMIOG/iZEadN44P337dVASajx3AniTeE7ApKoHsgbjLDkOzMJ9APvpm4JoIhk3k50eSaHEhcLOoQ3L/fPIWftn0RpUbPqR622phH1VVyR0oXkJ0N1UnwnPDFREKhdi0ZiU/uPs2zh+aw3duv5FNa1ZG7f7tWXjZYp5+fRlp6eKzf4CS5a9Qv1+8d9AnLRXb3GvAPMbgp0BEWV2lAHQvScBfRR1URwIFV9xi6uJb9/lWyla9afrACy+/ipRUa0Er3cWwkUWonfBtMMLtcvHmS89zwyVzue7CC1j5wXtRf8aUmbN57t1P6NO3n7ijpnH07WeE5/6JNjsp6ZnYZi82e6wT+F8iWNLLJUD38gv0xA+G5C28xjQLjaviGEdeedLUl3940Rj+8vyrJCbFtw9/emYWdbU17NiyKWbPKC85zpsvPcfH779N7+y+DBk+Mmr3zu6fw4LLruT91/+Dq6XZsJ8WCtJwcBe9Rk02zCtgU1UaEpLA60YTZ14uQHcO2hnOWKUAdB8jgWcQ/A7SBxeRt2AJImEPelwcfOFxAm7jLxrAoMFD+dc7H8f12r89M+ctRFVVdm37FL/FKMVIOFFRzjuvvMiW9WsYN2Va1HIZZPXqzeyFi3jn1ZfwuI39dUJ+Hy2lh+k1ZlqHHp0JNht1Hjda/0FoR/eCuKLSBcDfAMsxzfIUoPt4G7jMqFFNSKTojh8Ji1ZoWohDL/+VpiN7hQ/KHZjPix+sISdvYMSD7S78Ph/VJyppaW7C1dJCU2MDLc1NlJcc5/CBfRw5sI8jB/dTXnK8089yJCRwx333c88DD5KUHJ36gru2bmHpZfNpaRYn9smeOIe8Czve56loaabK5UKrKiX49t/N0oo9CnzX6vikAHQP84Hlog55C68he9Jc4U0q1i+jfNVbwj4pqWm8+OGas96nv7a6io2rV7Bh1SesX/mx5cCdjsjLL+B//vYsk8+/ICpjW/Xh+9x57RWmpwMFi28ja+TEMz73BYPsq60FNELr3iH0+aei2/jQPUktZUSVS4CuRwVeBwx3iZJzBjFw0fUogphyV+Vxjr79T+HbwGa38+QLbzBx+ozOjLdHkJScwrBRo5m36DJu+tp/cfWNN5PZqzcVpSXU19WGda/Ghnpe+/ezOBISmDR9pvD3YIVBQ4aSmd2fle+/LezXdHQfWUWTz8jmZFNVmnxeAqEQSr98Qgd2QMBwWWRDdxV+2crYpAB0PdcDdxu2KgqDr76LBMHUP+T3cfDFP5um637wkUe58robIx1njyY9M4upF8zhq1//BhcsuAgtpHHg8z2ELCYC1UIh1q1Yzs5PNzF74cWdXhKMmziJQyVlHNi51fiZAT+emgp6jZ7C6ZPzEBrNPh/Y7CjJqWhHhWnGi9BTiZnWa5MC0LXY0DP8GO409RozjeyJs4U3KVv5Bo2HPhP2ufyar/CDX/42kjGedeTkDWTh5Yu5+oabCQQC7N+zi4DFBB9HDx3krZf/zcx5F5of7Zkwbe6FrF6xnOqyEsM+vvpqEtKySO5/6n6Nw2aj2q1vACq9+qGVHgLjxKIKejTpv83GJP0AupYb0Hf/O0S1O8iZdbnwBq6KY1RtWSHsM3RkEY/8+W+RjO+sJndgPg/9z+N8suswN9z+dcu+BhWlJVx/8Ww2rxM7WZnRKyWRH/zpGVJN8iiWrnj9jKzBDlUl2eE4+f/qVNPq75cDU8w6yRlA19GW38/w7d932oVkDh9neAMtFOLwK08IS3Q5EhL4+yvvxr23X3eSkprKvEWXM/+SK9i7aweVZeaVjb1eD2+9/DxDho9k6MjwqgOd8uy0dFJyBrHuHeNIXi3gx99UR+aICad8HgiFaPH7AVBS0tFqK6GhWvS4vsALog5SALqOy9GrwHaIzZlE4eLbUO0Ooy5Ub1tN7c71wofc/9NfseiqayIe5LlE3/45XHPTrfTuk83G1StMlwXBYJBlb71GXn4Bo84zFmoRCTaVpIFDqCo5xpE9xj47nupyUvOG4Mz84n2hKiq1ni98CpSsbLTPhSkCR6BvBlYZdZBLgK7jO6LG7ElzsSUabzQFvW4q1rwrfMD4KdO54z7LVcIlgM1m46av/RdvrP6U4UWm1dYIBgL84J7bWPZmZLk47KpCqsPGbQ/9ll79xVWTSle8dsopT5LdhqNd4lclqy9KgTANuYLgpQNSALqKiQii/dQEJ9mT5whvULHufaG3n93h4Fd/eiomPvTnAkNGjOLVFZu47pY7TfsGg0G+e8fSiPcEMp12klPTuPPh3wn7uStLqNm1od0nCimOU2eI6vhZZo/7KtDbqFF+W7qGe0WNfcZfgD0p1bDd31RP9dZVwgfc9a3vWXqDSYxJTEril4//Lz/4xW9Nz/49bjdfv24x+/eIT2M6ItNpR1UUpl10BdMuvlLYt2Ltu2jtMgOlJJwqAEqv/igDh4lukQzcZtQoBSD2pAKGsbyKopoe+1Vu+IBQwG/Y3i93AHffL8wkJgmDO755P7954mnsDuP9GICG+jpuX3IpdTXCjbgzUICMBH0qf8uDv8IhKDDqa6yjpt2+T4r9zEQuatE0s0fejYHXrxSA2HMDYBh/mzF8LAkZhjM0/M0Np3wBOuL+h35FUnJKxAOUnIleD+F1Uweg8pLjPPC1my1lCG5PWqsA9BtYwBW3CSeIVKx7/+QLwGlXsZ9WA0IZMBglSxjkVYgeKHQGUgBiz+2ixuyJ4rX/iU3LhW//UWPHs/grSyMbmUTI3Isv5YkX3jBNn7Zi2bs89Vh4Tlepji82866+537Ss8Qvgbrdm1v/TyHRcWZuCGWU6ZH/LR19KAUgtgxHUNTTmZVNar5xAsugz2P69v/Wgw/Ljb8YMnPeQn7913+Y/hv/7uEH2bLeelYuu6rgtOn3TE5NY/Fd3xT2r9y0HNBnGUkdZEJWh5wHgiNk9GXoGdNE+c2JLdeKGvUEn8abTTU71xP0GseSjx4/kfmXmKeZlnSOK6+9ge///DfCPsFAgAfuulkY+3867WcBl3z1a2T0zjbs662tpPGwHvadaOvA0B0JmBwJpgGXnv6hdASKLY9jFPWnKORfuvSMyK8v0FNGBQUJIB5+9M8MHWGtHLWkc0ycNoOSY8Xs3bXDsE9jfR2qqjJ99jxL99TQaPDqwUl2RwJBv59d64zzFQa9bnoVTUZRoKYDoVEcTrSDwoRAQeCV9h/IGUDsGAEYBuGnDRouLO7RfPwg3jpDBy7y8gtYcKn4CEkSXR5+9M+mbsBP/v7XHNovjNQ7SfsZAMDFS+8kUbCZ23R4D77GOhJUe4fzRiWnAFLSRY+8DDjlyEEKQOwQzs0zh08QNVOzQ7z2v+Xeb2GLsC6gJDKSklN4/JmXhCcDfp+Pn90vdL47iU1RSLB9YcqpGZnMvfp6w/6aFqJuz2YURY8OPANFQR0kzG2YBixs/4EUgNhhnMRfUcgYdp5hc8jnFaaMTkpOZsnSWzozNkmEDBs1mu/97NfCPms/+Yjl75pnaAZObgS2seimu4T92zwDnfaOxd9kHwBO2weQAhAbUoCZRo2peeK68Q0HdxESJMK8ePESS7nnJbHhxjvvYdwkw8MdAP74yMOWfAMSTxOA/OFFDB07ybC/t/YE7hMlOJSO08Qr/fJB4FWKnAF0CQvQc7V3SPpgcb14s4IR135V6FogiTGqqvLTR/8sXILt3r6VNcs/ML2X036mCS649ibhNfWfb8NhMzg9UhSUPGHJ92G0K0EnBSA2CH170wqN12khv4/Gw3sM23PyBjJlpth1WBJ7zps42TRw6C+//aXpfU6fAQDMvGwJNsGZfv3+7TgEfglq7mCzx154sq/pCCWRYBiiZU9KJblvnuGFzccOCKf/i666ptNJKiXR4b9+8BOcicZ+/JvXrTaNGHR28CZPzczivBnGHqKemkq0JuN6gYq5AJz8fkoBiD7JgOEWf1rBcBAYcKNJjv9Fi5dEPDBJdNETihgG2gHwwj/+V9huUxTUDr4OMy79kvA6z7H9xo1JKWaxASdLTEsBiD5TAcP5W8oA4fpMKACZvXozYer5EQ9MEn2+/p0fCGMFPnjzNdOiILYOFGDy/EXitPBHxXUPlH7ClHBDaU1NJwUg+hhv4YKwJLS/uQFvbaVhe1u5LEn8kJM3kCu/fINhu9vVwrI3xNmD7B0YemZ2PwaNNM7v4Dp+UHhPJXuAsBmYBlIAYoFhsjjV7iBJsP5vKTsivPEFC0wzwUq6gWtvuUPY/voLzwrbbQZv+vGzFhheE/S40OqNPUURfM9amQBSAGKBoQAk9R2AIjg6aikVC8D0WXMjHpQkdkycNoNBg42jOjes+oQTFeWG7R0tAQBGTxOXJtNOGNcXUDJ6Q4LxBiUwGqQARJsEwNAVK7FPjvBiV1mxYVvv7L4MLDDd3ZV0A4qisFhQgSkUCrF+5ceG7XaDpf7wCVPFJz4CAQA9a7AAKQAxoBDBBmBitjgLrLuqzLBt4rSzv75fT+aq68XOOxsEAmAUEp6W1Yvcwcb5/rS6E8JnKplCARgBdOCGJOkMwld0kmAG4GusE8b+F40TBw9Jupf8wiHCZcDaFR8ZtmkYuwwPHjPe+DrRHgCA+CgwASiUAhBdhGd8zl7GteU81cZrREBm/O0BnD9nvmFb2fFjHC8+3HGjIGQgf7gg/NjvEzsECXJNtt1eCkB0MRQARVVxpBkH8HhNpnMjxximFpDECSIBANiyruOUYZpgmZ8/3CS6r7HGuE0QcNbKICkA0cXw8NWRmomiGP9z+xqMa9jbHQ7yBhV2bmSSmDN99jzhpp1hohDBDCB38HDhMzVBnUglRQpAV2O46BJl/wGxAPTPzZPJP3oAvbP7kt3feJ/nyIGOvfdEQcN9BwwUnwQIBAC7AwTl5oABUgCiS3+jBlH8P4Cvqc6wbUD+oMhHJOlSBg8bYdh22EAAAiFjCXA4E8nMNt470pqN9wAAFHFugN5SAKKL4QxAVPgTIOAyrvvXP1fo1imJI0QCUHzoAMFg8IzP/QIBAOjVT3B8LDg5AsxmAL2kAEQXw4yM9iRx5Z6Au8WwLat3H8M2SXwxeLhxrge/z0dlWemZn5sIQFpWL+NGQdZoAAyzTgNSAKJKIoI066IZgBYKEvJ5DdszRF8ASVyRkzdQ2N7UeOqaPaRphExSh6VlCvaPTGYAitgdOEsKQPQQvuJVQaFJ3fiNvwQy/1/PISXVsAwkAK6WU5d6Zm9/gJSMTMM2TZA8BjCrFpQgBSB6CBdbimq8i691sC5sT4LTML2gJM5ITRMLQEvTqbkBrAiAI0Hw+w+JvzsIvneAUwpA9Og4TWsris24OdSu/ntHmBWnlMQPZjOA5tOSg3gCIdN72h2C37/Jdwfx8bGcAUQRoZSLZgBo4i+BQzyNk8QRqWnCyjx4XKdu2rk7KwAm3x2TGYBDCkD0EAqAJpqqCTwEAQJmKi+JG7L79Sc5xfjsfcCgglP+3xM0F4CgoDy82XfHZIkQkAIQPcQCIFjni5KEgH58JOkZ2B0Obv/GdzpsmzR95ilh3ZpmTQD8ghMikym+mQD4pABED4+oUTQDUAX7AyAFoKdx7/d+xM1333eKC+/5c+bzx3++eIpLtycYwkLxIAKinX7xFB/EG8xe8TdPEg7C1K8hwTROFa3xOPPsWBLf2B0Ofvybx7j1v77Ngb276dc/l1Fjx5/h029l/Q/gamwUPMxkg1i8fPRJAYgebiCAwWlAUOCxpdjsqI4Ew4Ig9bWCkE9J3JKXX0BefoFhe5Pf5AivlcY649+/kij09EMTOwrVyyVAdDF06A+4xS6bdkHQRn2dcaSgpIeiQbPPmgC0NAgCfpziGBO8wpVpnRSA6GIo1UGPsa8/iGMFTpQb5wqU9ExaAkGCVjYAgNpKQbYosa8/eIUvnmopANHF8DflbxFXh3GkGbt7lh47GvmIJHFJk8W3fzDgp/aEsQAoJmHmmvjFI2cAUabCqMHfKJ7GJwjyt5WVHCMUsrZhJOkZNFpc/58oPU5ItJMvEoBgEARh5kCZFIDoYijVvqY6RGc+CRnGEX8+r5fykuOdG5kkbvCFNEsuwAAVxYeE7aIZgNZienp0VApAdDGcq2vBIP4W4+Mcp7iIA/v27Ip8VJK4os4j8Ow7jWP794g7pAlCxU2yBSEFIOoIKzaKMv+aVQ3av+ezyEYkiSs0oM5r3bX72D6BANjsKOnGAqAJ8ky2IgUgyggFwF1lvJnjzOiNKgj73LNjW+SjknQZoVCI0mNHaW7qeLbX4gviC1rb/Qc4smenYZuS2QdECUPrhanmA8ARKQDR5RBguLgTFv9QFGHloG2b1ndmXJIu4Lmn/sL0If2ZM7qASQN78d07bzpDCGrCePu7W5rFSwBx5R+0+mpR8yHAKwUgunjQ/2E7bhTU/gNIzjHO/ltecpyKUnExSEn38ffHH+Wh79xLbbVerisYDPLGC//iB3ffdrJPUNNo9FkXgP3bNglPAJRscQlwk9qBu0EWB40FhnN1V+VxNMFxXkquuPjH5nWrIx+VJGb4vF7++rtHOmx7/41XThYEqfUELAX/tLF3s3jWp/Q1FgCtqd4sYagUgBhhKAAhv0+4DEgZqGb8EgAAIABJREFUIBaANcs/iHxUkpjxwVuvUVdjPN3+bNunaECV2/ruP8D2VcYFRbE7UERLgKozsw+ffnuQAhALtosaW8qKDdsSMnqTINjVXf3xB2jhvEIkXcJL//ybsL1/7gCq3H5hAZDTaa6v4+CurYbtSv9BoBqbr1ZlulzcAFIAYsEmBBuBLaUGFWJbSSs0LgZ5oryMvTuF+iLpYvbv+Yz1Kz82bO/bP4eJ02dSHebbf9uqj8Tr/wHCSvRolULHsWNAGUgBiAW1tK6vOqLpaMflodpILzQuLAHw3uv/iWhQktjwxO8eEc7Kliy9lfqAuPxXR6x79zVhu5IrqETv86DVCMvNn9xckAIQGwx36/xN9XhqDEMGSCsYKUwg+r4UgLih+NAB3nnlRcN2RVG4euktYa/9Pa4Wtq380LhDagaKwHNUKzsidDsH1rb9hxSA2CDcrm8qNigTDdicSaQVGNeXO3JwP59t+zTykUmixiM/vL/DWn9tzLv4Mpz9B4X99t/4wVv4PMaJPNRB4lmiViZeZgIndxelAMSG5Qj2ARoOGa4QAMgcMUHY/vKzf49oUJLosW7Fcpa/+6awz63f+h41Yfj9t/Hxy88K25XCImF7qETokFoC7G37HykAsaEK2GzU2Hx0vzBFWMawscJlwFsvPY/HbVIVVhIz3C4XD337HmGfabPmkj16cljn/gCVx4v5bINgApmSLnQA0qrLoFkYBXjK2aIUgNjxrlGDFgrScNA4us+elELG0DGG7Y0N9bz9ygudG50kYv7np/+PIwf3G7YrisLt3/8pLoshv+358N//EDqLqUPOE/r/a8V7Ddtaef+U+4UzOElYGAoAQP3+HcKLe409X9j+98cflT4B3cCmNSt55onHhX0uXfIV+o2ZEva9vW4XH77wD2EfZdg4Ybt21Hh/Cd1V/ZTvpRSA2LEFQVxA4+HdBATZWtILi3AIkj2YnT9LYsPvf/5jofAmJSez9Ps/s5zvrz0fv/wvmgQJYJX+g1Ay+hi2a1WlaA3CDNIfcFr6eikAseVlowYtGKRu7xbDCxVVpc/4C4Q3f8LA/1wSO0RTf4A7vvcQTpPcDh0RDPh5829/FPZRR4lnFdoB8awSePWMe5pdIekUxofEQM2uDcKL+0yYhSooDLpuxXI2rVkZ2cgkEZGeYZy8ddKMWcy96e6I7rv8pWeoPF5s3CE1A0V0/BcMEDoiTBrjAc44tpACEFu2A4aLMndlCS6By6Y9OZWs0WLV/8MvH4p4cJLw+dINX+3w8+SUVO7+zV9RBP75Rvh9Xv7z5/8R9lGLpol9/49+blYD4E2g7oz7WhyjJHKEuzpVn4rf4H2nLEARVIDdtGYlH7/3VmQjk4TNHffdzxVfvv6UzzKyevGTv71ArwEFEd3znaf/SnWZwHffmYRq4hsS2r3R7DFPd/ShIJ+QJEr0QXe+6DDfl2KzM+bun2NPSTO8QfFb/6Ruj6FbAYOHjeDdjbuwO4yXC5Losnv7VrZtWk9aRiajZi3Ek2Bc2UlEQ00V984bh8sghRiAOmk+6jjj/SDtRAnBt4XOYRXAQPQ0YKdgUlpUEgVcwFhgdIetWgibM4nUgUMNb5CUnUP1tjUYVSCvq60hIzOLCVPFR4eS6NG3fw5jJ02l79AiaoORm9E/fv4D9m0VvL2dSdjmLhGWAQ9t/gjE2X8e4zQHoDbkEqBreFLUWPXpSsPCoADOXv3oNWaq8AG//8VPKDt+LLLRSSKi0RekpNkb8fV7Nq/joxefFvZRx14AgurRWlMdWrEwdbgf+Kvh/cVDlESJ5QgyBQVcTVRvE6f7yp2zGJsz0bDd1dLMj7/19YgHKAmPJl+QY03CTTchAb+PJx+8T+hToKRloRaJhV/bsRrEVaNeBgzTA0kB6Dp+L2qs3PSRcBZgT0mj79QFwges/OA9Xn3un5GNTmKZFn+Q4kYPYQb5ncILv/8lxw8IvfZQpywUTv1pbiAkcClvRehcIAWg63gBfTOwQwIt5rOAvlMX4sw09gQD+NkD91Fy9EhEA5SY0+wPcrjBY7AbY43dG9fw2pPC9wFKbiFKgXF2KIDQ9pUQEtYYXAUIjwekAHQdfuBRUYeK9cuEUYKq3cHAi64TPqS5qZHv3nETwYD19NMSazT59Dd/Z4y/uaGex75zpzDgB5sddcZlwvtotZWEzD3/fmbWQZ4CdC3bgVuB9I4atYAfLRggfbBxvLczKxtffRVuQY2B8pLjuN0uZi24qLPjlbRS6w1wvNkbdnhvezRN4w/fvI0D242PdAHUiXNRBxknhQEIrXoDxBWn1wM/MhuTFICuJQB4gUuNOrgqj5M1ajL2pBTDm6QOHErdZ5sI+Y13oLdv2sCwkUUMG9Xx6aPEOuUtPipajPdnrPKfP/2a9/8lziCs9M7BNmuxOOS35CCh7avMHncHgmC0NuQSoOv5G3pW1g7RgkGOf/iS8Ab2pFTyL12KyI9L0zS+f/dtsqZgJwhqGsWNnrBz+nXEpg/f5oU//Ercye5AnfMlocsvwQChDe8bt+t8jB75Z4oUgK7HCzwo6tB0ZC91e4wjBQHSBxeRPWm2sI+rpZk7vnw55SXCFNGSDnAFQhyoc9PoE26yWeLwZ9v5w7duF6/7AXXqhXrBTwGhHWvQxFP/EPA9q2OTAtA9PAesEXUo+fgV4YYgQO7cq0juN1DY50R5GXddewVNjcI0UZJ2VLv9HGpw4+vMOV8rlceL+eXt1+BxtQj7KQWjUEdOFvbRGmoI7Vor7AP8E7CcNVYKQPegAd/FyLcX/ViwZPkrwpuodgeFV9+JPUnsh7531w5uvWoRrhbjBCQSfcp/tNFDWYuvU5t9bdRXn+AXt3yJuhPGaeABlIze2C64UnwzTSO0+k0QZCEGmoEfhzNGuQnYfZQCBcB4ow7uE6Uk9c0lsXd/w5vYnEkkZecKk4sAVJSVsGPLJi69+lrsdnuEQz57qfMGONrojSiPX0c01lbzk+svoeSQOIEIjgRsi25CSenwYOgkoZ1r0A6aHvv9EFgWzjilAHQva4BbAMMt/+aj++k1egq2BGM3YGdWNraERJqOiBNCHi8+wpb1a1h01RISEjoMTjzn8AVDHGv2UuX2d8qzrz31VZX89KYrObZf6KMPioJt3jUo/fKF3bSackIrXzcr9rELuB1BOvqOkALQvbjRZwJLjDqEAnpF4V5FU4RHQykDCgl6WnCVHxU+sPTYUdat+IiLFy8hMSkp0nH3eDQNqjx+jjV58Qajl1y1qvQYP7n+UkoOikvAAajTF6EOFSf5xO8jtOx58Aj3EELAVQhOl4yQAtD9fAZMAYYbdfDWV6MoCqn5w4Q3SischbuyBG+tMDSUyvIyVn20jPmLLic1XTz1PNvQNH26f6zJQ4Mv2CmvvtM5smcnDy29nKoScztUx0xHHS8+xQEIrnodrUIs6ujhvv9naZCnIQUgPliFvhQwfCU3Hz9ISk4BTkFNOEVRyBwxAVfFMbx1VcIHVp+o5I2X/83kmXPIyR0Q4bB7DpoG9d4AR5u91HkDRPGlD8D2VR/xy1uvprFWmJUX0FN7286/VDijAwjt2YT22XphH2APcC0dJPuwghSA+KAR3WvrWlGnpiN7yBwxAXtismEfRVXJHDaW5uMH8TedkQLuFNwtzbz10vNk5BUwcvQYbCZfyJ5ISNPdeI81e1oNP7qWr2kabzz1GH/63t34xDn5AFAKR2ObfZWp8WuVxwitfNVs3e9D9yo1DDIzQwpA/LAXyAcMk7+FAn6aij+nV9FkYbZgxWYnc8R4mo8fMhWBgN/Pirde5WhlFcOnzSHBbsNhU3t8rjhPIESl209Jk5cGX/Tf+ACupkZ+f9+tvPvPJywVaVEKi7DNuVrs6QdojbUEl/0LBOHhrfwI6FS5aCkA8cXH6BuChu5gAXczroqjZBVNFiYLVe0OskZNwlV2BJ+4WAQA+7dvZuPK5QyYMAN/Yir+kIZdVXCoPUcKgppGvTdIWbOPCpcPdyAU1TV+e/Zv28TPbl4sTufVDnXYeP3Nb5Y12Osm9P6z0GKcI7CV94B7EfiSWEEKQHzhQxeBr2KQRBTA11CDr7GOzOFjEcUDKDYbmSMn4qkqM90YBKipKGX5S8+Q2qs3OSPHUusJ0OgLEtRAVRTsqhJ3MwNvMES9N0CF2095i48GXxB/tM7zOiAYCPDSY4/wpwfuFlbxaY9aNBV15mWm036CAYIfvoBWU252y2JgEXq+yU4hBSD+qELf2LkOgXW7T5QSdLtIHyKO9lNUG5mjJhJ0u0yPCEFfEmxZ/h77tm1ixMRpJKZn0uwPUusJUOMJ4A6ECGoatlZB6GoCIY3mQIhqT4CyZh8n3H6a/EF8QS1mb/s2Du78lEfuvI61b/8HTbNw3K4oqNMuQp0417xvKETw45fRyg6b9fQCl2Ah0s8KUgDik31AMjBT1MlVfhRCQdJMYscVRSF9yGjsick0FX+OlVljxdHDfPjC0yiKwrDxk7HZ7Gia/sZt8gWp8QSo9QRo8gdxB0L4QxoaGqqioEZhMzGkgT8UojkQpN4boNrlp8zlo9Llp977hRB1BS2NDTzzyI944sFvUldp+nbWsTuwzb8GdZiho+cXaBrBVa+ZFfZs4y5MCs+GQ7zN6CRfoKJv8HzJrGPO7Cvof/7Flm7aeGQvR996moBbHJzSnn75hSz93sPMuPRLKBaM26Eq2FRFnyUoCnYVbIqC2sGMIdQ6XfeHNAKahj+k4Q9qXWbcIoIBP8ue/zsv/eFXNNaZ76O0oaT3Qp3/ZZRe/cw7axqhNW8ROrDdyq1/hUkkabhIAYhvktDzuc8w69hv+oXkzlls6aa+xjqOvP43S0uC9gyfMJWvfOuHjJ+9MKzrehqhYJC1b7/CS398hNLDB8K6VskfgW32YhC4bp9E0wiuedNKUU/Qs/t+hTBdfc2QAhD/ZKOndxpi1rHv5HkMWHA1Vn6tWjBA2Yo3OLFlBeFuJA8fP4Ul997P5PmXRFQLL14J+H2sfvNlXvnzbyk7cjC8i2021EkLUMdMt9Y/GCT4yX/Qjpm7DKPHjFyIXuAzqkgBiH9S0CO8hPsBbWSNmcagS25AUa1t7zQd3cfRd57F31Qf9sByCoZw2S13M++apSSlRFYaKx5oqKnig+f/j/eefYr6qsqwr1d69UOd8yWUrL7WLvB5CC5/Ga3cUvbmrcB8ICYJHaQAxDfJwNvAvHAuSswbyrAlX8OeaC3YJ+hxUfrxq9Ts2kgkx8qJySmcf8lVzLtmKaOnXWBpn6C7cbc0s+nDt1n95svsWP0xwUAEab9UFfW8Gajj54jz97enpZHgh/9Gq7UkNPuB2UD4qmSR+P9NnbukoO/2mkeMdICamU3OVXeQ3XeA6fFzG80lhzi+7AU81RZ3ujugT04eE+dexKQFi5g45yJscZR7wO/zsn31cta98xobl71pmqVHhNIvH3XGZSiC2IzT0apKCX70IrgtJWY5jP67N6zqEw2kAMQnEb35z8CZhHPeNfQdfh5ZziRsFs7ttWCQqk9XULHufYJed6cen5KewajJMyiaNpOiqTMZMmZClwqCz+Nm//Yt7N64mj2b1rJ/22a87k76zqSkY5s0H2Xo2LAu0w7uJLj2bQhaitnZByykEz7+VpECEH9Ex/jboY6diWPKArKSkumdmESChelqwN1MxZr3qN6+Bk1cfcYyickpjJg4jWHjJ5NTMIScgiHkFg4lvZc4EaYVaivKKCs+RHnxQcqPHGLf1o0c2PEpAXN/ems4ElDPm6lv8gniMM4gGCS04T1C+7ZavWI3+oZf5NOwMJACEF+EM+1fA+Rg4XQAQMkbim3WlZCUSqojgazERNKdTlOnHV9DDRXrP6D2sw1o4nx0EZOclk5OwVCyB+SRnJqOMzmZxORUktPScSYlk5CYiKelBa/HhaelBVdTI163C3dzE5XHiykvPtT5N7sRjgTUUVN1wxdEYXaEVl9NaMWraLXinIDtWA9cBogjuKKIFID4IZw3/xp0d1An8AYWTwhITMY283KUQSMBsCkq6YlOMp1OUhwORJ7+vsY6Tmz6iJpdGwn5on4aFX8kpqCOmqxX53WGnzlJO7iT4Lp3wPrm4mvAUqLg3x8OUgDig3De/CvR3xJtO1jJwPOANS8gQB0+AXXqhac4q9hVlXSnk7QEJ6kOh+HMIOh1U7NzPdVbV+Gtr7b6yB6D0rs/StE01MFjrO/st6elkeDat9FKwvIjeBR4gCg7+VhBCkD30xnjb8MG/BK9IIS132lyKrZpi1AKz6xDqCiQYk8gJSGBFIeDJLu9Q0FwVRyjZsdaavd82rNnBc5E1IIilKFjTRN0GqJphPZsIrT1Eytx/G34gW8Cf43soZ1HCkDk2NCLfDrR38IpQAKQAdhb/3QAqeguvYlAWmtbVuufacBI4DwLzzMy/vZ8Gfh76zMtoQwcjjr9YpS0LMM+qqKQZLeTaHeQbLeRaHfgtNtOLhlCPi8Nh3fTsH87DYf29AwxSExGzR+BUjAKJbcQLDpOdYRWXUZo3bto1cYFWzugDD3iU1ggJtZIAQiPi9GzsExGN+iuworxtzEGeAVBktEzUG2oo6eijpsNFtOFK4DDZsNpt+G02XGoKnbFhl0L4Ss7TMvRfbQU72utYtz9gT2oKkqfXJTcwSgDBqP0HWgen29GSyPBTz9GO7gz3CtXoRu/5d3BWCEFwDr3A7+h6//NwjH+NlKBx9ETjVonMRl1/GzUERPBFp3zetXrRjtRglZVilZVQqimAs2k5FlUSE7T1/PZeSh9B6BkDwBHlGoheD2Edq8n9NmGcDb5AILo36GfEGESz2gjBcAa3wF+1w3Pbdvtj7Sm1xLgKfQlh3USU/S01aOnRU0ITsHTglZ3Aq2hBpob0FoaoLkBPG40rxu8LnEyTNUGziQUZ5J+NJeagZKaqf+Z0Uf3zrMSjRcufh+hvZsJ7VwL4S9zjqFneloZ/YFFjhQAc+4HftsNz43kzd8R+cCT6CmkwiM5TU9nNWISOLtyxYP+Zm3zOwgGvhAiuz02oiSipVHf4Nu3NRLDB3gW+AYxCujpDFIAxHSX8e8GptF542/PLejHTeHNBkCvWz9sPErRFJSMznvt9RS0qlJCezaiHdkDJqW9DTgC3E2Y9fq6EikAxnSX8QO8hL5JFG1y0NegNxLh717pNxBl2ATUwiJwJER1cHGBx0Xo0E60/dvQTIqrCAgAvwd+Shc79oSLFICOiZnxJztUVEXB7RfmtHsauDUWz29lJvomoWENAlPsDv0IsXAUSt6w8Pzj4w2vm9CxfWhH9qKVHYr0bd/GMvQ9I5PKoPGBFIAzsWT8KU47X544gLREOw6boh+HOVQcqkqK04ZNVUhyqLjqa0mwqTjtp2bRvfeNYhq9hr71f0HP+R5LbOjLgoeAgZ26k92BkjcUZcAQ/YgtNTMKw4stWn0VWukhtJJDemKOzhk96IVdvouer7/HED/B2vHBA+hTZCEpTju/WFzE8L5if5tQKES9t+N/Yp+4VE3n4nCtEUQvKPkcutj8P6B3RHcK+NGK96IV6+XJlYzeKDkF+ll73zyU9F5RGnKEaJpu8JXH0apK0MqOWCm8YZXDwC/QN/ri4mgvHKQAfME9RNH4AUQF531B4RunK9eNHvQjzqeArwPfBvp35oZaQ41+xPf5p/oHicn6mXxWX8jMRsnqq3sehhldZwlXM1pjDVp9NdRVotVVodVUgN8b7Scd4QvDjyCdUHwgBUAnE4vTfsvGD2gGsR2BkCbSBuiejaNGdAH8I/rS4LvA0Kjc2eNCKz2MVnpa0Qu7AyUtE1IzvzjXdybr0XeqimJPOLWUVjCAFgzox4NeF3hb/QY8LmiuR2uu/+LoMHZsRD9NeZUe+MY/HSkAOhPR/fkNCdf4wdiXxRswdY3tiiWAER7gCeB/0V2f70V3Rop++t+AX99pb91tjwOHYSO86GHXjwHrunksUUUKgI4wfCsS4wcMK8aaTP8hPo6OQugbWu8Bg9FnBUuBwm4cU1ezEz246jng7It9Jhaq3jPZCnRY6TFS4we9wERHmGwAQnwIQHsOo/uvDwFmoc8QYpaptps5ADyCPisch/7WPyuNH+QMoA2XDW5DVV4JhrSTcaEZSQ5+esWoiIzf7/PS0tzUYZsvvpcAIjT0+IQ16EuD6eiJSK5ED2vuiQSBzejn968Blsr0nC1IAQA0UN79rxkXldS5bSv2V1PZ6KGgdzILRvUlMyl8Bxe/z0tTQ4PhJkAPWQKYEUJfD68Dvg/kAQvQi1jMo7O+BbEjhH5mvxa97NpyDGZ/5wLnvCNQq/H/Cf0YsNOYGT/AnhNuHlkhTB4xBz1mvCeTA0xt/ZmMPkOIMN1OxATRly87gV3oO/jricOgnO7inJ4BdIfxg6U9gHhdAoRDOfrO+RvtPksDRqEnKxmEPksYiD576NX6E45zQCP627sKPbnGUaC49c/D6G/6s+HfMmacswLQXcYPZ80SIBKagE2tP0Y40dOrtfkTt6VVa0CfvvvR8yM004MdcOKFc1IAutP4wZIfwNkqAFbwtv6cs+vyruRsF4BJwBVAH2AL8IIG3u40fgD/ubEEkPQAzmYB+DbwP5zq6/CtZ2+ZvKU33B6NB0Ri/ABu/zm7BJDEGWerI9AD6P7ap//9xv17y/FuNf7DtV7e3Gta+UkKgKRLOBsFQBjSu/VY50+AOmP8v15Zhks8A3BxFgSZSHoGZ5sAmMbzewOdixaLsfEDfBrx4CSSMDmbBMBSMo/ROekRP6ALjF9DjzGXSLqEs0UALGfy+er0yJzRusD4Qa/t90Ek45NIIuFsEIDvYMX4E2z8/MpR5GWFX+o5UuMvrvPy21WWjf+H6KcWEkmX0dNjASxV7ElJsPHzxUWM6JcW9gM6Y/y/XllGs8+y8T8S9uAkkk7SkwVAGr9E0kl6qgBI45dIokBPFABp/BJJlOhpAiCNXyKJIj1JAKTxSyRRpqcIgDR+iSQG9AQBkMYvkcSIeBcAafwSSQyJZwGQxi+RxJh4FQBp/BJJFxCPAiCNXyLpIuJNAKTxSyRdSDwJgDR+iaSLiRcBkMYvkXQD8SAAlo3/F4tHM7xfZIU6pfFLJGfS3QIgjV8i6Ua6UwCk8Usk3Ux3CYA0fokkDugOAZDGL5HECV0tANL4JZI4oisFQBq/RBJndJUASOOXSOKQrhAAafwSSZwSawGQxi+RxDGxFABp/BJJnBMrAZDGL5H0AGIhANL4JZIeQrQFQBq/RNKDsEfxXpZKdCvAQ5eP6lLjD7NE9wPIKr2ScwRblO7zHcIwmpoWHxcM6Y1NtT4B6cyb/zerymixXqLbVMQkkrOFaAiApWl/e8obPBw40WxZBOS0XyKJDZ0VgLCNvw2rIiCNXyKJHZ0RgIiNvw0zEegi438QafySc5RIBaDTxt+GkQh0ofH/KqwHSCRnEZEIgCXjz0hx8NZPz2d/aTOlNR5h39NFQBq/RNI1hCsAlo3/g1/MZPaYPnx51gA+2VllWQSmDUzF1dQojV8i6QLCEYCwjH/qiCwAEhNsYYnA5+WNTMlLCeuIUBq/RBIZVgUgIuNvIxwRONHs50idlyl5qZZEQBq/RBI5VgSgU8bfRixEQBq/RNI5zAQgKsbfRjRFQBq/RNJ5RAIQVeNvIxoiII1fIokOqsHnDxDGOX94+/W6aCz78XimFiSa9t1V4eIPayvwB/WnHK718sgKy8b/ANL4JRJDOpoBfA14zOoNvP4QL60uYd7YbPL6JFm7yNNMYn0p105K45P9LkrrA8LuJ5r9HK7z0jfFwe9Wl1sN7HkQ+LW1AUkk5yanL64XAu8TgYNQRoqDZb+YyTSzpYCnGaqOnzznb3CHuOix42wqFi8H2gZrcbYhQ3olEgu0N/Q+wEdA+LW30WcCL68pZd44wUzgNOMHSHQoXDspnY/3mc8ELCKNXyKxSPs9gP8G+nXmZg0tfi56cA0bPq89s7ED428jI0nlg28OZFqh+Z6ACQ8ijV8isUybAIwCbhV1THHaWTwux/SGja4Ai368jo376r74UGD8bWQkqSy7b6CljUED5IafRBImbUuA/wYmGXVy2FR+fmURi0b3IyXBxtZj9cKbnrIcSA2aGn8bnVgOyGm/RBIBNiAFeBpIMOr0jXmDmT64FwAj+6dZF4HVJcwb4Ccv03rqwUSHQmHvBJ7d2Gj1Emn8EkmEqMDFgGGGzlE5aVxUdOrWwFXjc7nzggLTmze4Alz8x+NsPGK+w9/G5mIPX36q1Gp3afwSSSdQgTmiDjdMGdjh55ZFwB2yLAKbiz1c9Mfj1LssnfN/D2n8EkmnUIHxRo1piXbG5WUYXnzV+FzunFVo+pC2s/4NR9yGfbYe87Do8RKrxv8g8FsrHSUSiTEqMMSocUxuumlI7lXjcizNBBo9IRb9saTDmcDmYg8L/nCc2pag6X3Q3/xyt18iiQIqYOi61yfVaekmV43P5fYZ+ab9OpoJyDe/RNJ9qIChlScnWPMI9nu9zB2YwI3je5v2bT8TkG9+iaR7sQMtQHpHjfUuv+kNPK4WXM3NACwangnAc9trhNe0bQwqCuFs+Mk3v0QSZezACQwEoLzReOc+4Pfjbm7G7/ed8nk4ImARafwSSYywA/uBoR017ilvpMUXJKV1KRAKhfB7vfi8Hvw+X0eXANZFwALS+CWSGGJDN/55HTWGNMhwhMhLBrfLpb/xfV5CQfM1+9DeiSQ7VHZVGB/9mSCNXyKJMTYgANxm1OFIjYd5hamoYef96ZQISOOXSLoAG1CKHgnYocePJxCi3hNg0oCUiB4wtHciLl+IQ7Veq5dI45dIuggbepKdFGC+Uaej9T5sisLIbIspv9qxv9rDCztr8IcszSCk8UskXUibm18mcKT1T0NmFaRxy6RsEmzmBTs0YMXhRp7ZWk1AGr9EEpcn+ft4AAAA4klEQVS0efp4ADdwiajzsXofq4ubSLCr9E9z4OhACIKaxmeVbp7YeIKPDzVizfal8Usk3UF7C7YDnwAXWLnQpioM75NI3xQH6U4VT0Cj2hVgX5Ubl7WsvW1I45dI4oQ8oBx9Bt8VPw90zV9LIpFYZTxQjzR+ieScZQxQQmwMP4BefEQikcQxecAqomv8lcBFXfmXkEgkkWMHvgHU0fm3/hOAebywRCKJOzKBHwLFhGf4DcBTwPAuH7FEIjHF3KPnzP7T0WsITgVGoJcUywKa0TcPDwA70I8UP0T3L5BIJHHI/wdN3j+/Yjgc6AAAAABJRU5ErkJggg==;rotation=0;" vertex="1" parent="8OQxIH6SHYgHdTAtB-A_-63">
          <mxGeometry x="20" y="100" width="60" height="60" as="geometry" />
        </mxCell>
        <mxCell id="8OQxIH6SHYgHdTAtB-A_-76" value="&lt;h1 style=&quot;margin-top: 0px; font-size: 17px;&quot;&gt;&lt;br&gt;&lt;/h1&gt;" style="text;html=1;whiteSpace=wrap;overflow=hidden;rounded=0;fontSize=17;" vertex="1" parent="8OQxIH6SHYgHdTAtB-A_-63">
          <mxGeometry x="100" y="190" width="120" height="30" as="geometry" />
        </mxCell>
        <mxCell id="8OQxIH6SHYgHdTAtB-A_-75" value="&lt;h1 style=&quot;margin-top: 0px; font-size: 16px;&quot;&gt;GERENCIAMENTO DE MATERIAS&lt;/h1&gt;" style="text;html=1;whiteSpace=wrap;overflow=hidden;rounded=0;fontSize=16;labelBackgroundColor=#6AE899;" vertex="1" parent="8OQxIH6SHYgHdTAtB-A_-63">
          <mxGeometry x="45" y="280" width="290" height="40" as="geometry" />
        </mxCell>
        <mxCell id="8OQxIH6SHYgHdTAtB-A_-74" value="&lt;h1 style=&quot;margin-top: 0px; font-size: 16px;&quot;&gt;GERENCIAMENTO DE ESTOQUE&lt;/h1&gt;" style="text;html=1;whiteSpace=wrap;overflow=hidden;rounded=0;fontSize=17;fontColor=#000000;" vertex="1" parent="8OQxIH6SHYgHdTAtB-A_-63">
          <mxGeometry x="45" y="340" width="300" height="30" as="geometry" />
        </mxCell>
        <mxCell id="8OQxIH6SHYgHdTAtB-A_-78" value="&lt;h1 style=&quot;margin-top: 0px; font-size: 16px;&quot;&gt;&lt;font&gt;GERENCIAMENTO DE FORNECEDOR&amp;nbsp;&lt;/font&gt;&lt;/h1&gt;" style="text;html=1;whiteSpace=wrap;overflow=hidden;rounded=0;fontSize=16;fontColor=#6AE899;" vertex="1" parent="8OQxIH6SHYgHdTAtB-A_-63">
          <mxGeometry x="45" y="220" width="330" height="40" as="geometry" />
        </mxCell>
      </root>
    </mxGraphModel>
  </diagram>
</mxfile>
